<svg id="Layer_1" data-name="Layer 1" xmlns="http://www.w3.org/2000/svg" viewBox="0 0 1000 1000"><defs><style>.cls-1{fill:#fff;}.cls-2{fill:#bd0c19;}.cls-3{fill:none;}</style></defs><title>Artboard 1 copy</title><circle class="cls-1" cx="498.28" cy="492.47" r="476.56"/><rect class="cls-2" x="305" y="557.95" width="419.1" height="2.13"/><path class="cls-2" d="M320.51,577h1.33l13.84,29.39h-1.54l-4-8.51H312.13l-4,8.51h-1.46Zm9,19.6-8.42-17.93-8.38,17.93Z"/><path class="cls-2" d="M362.25,578.46H351.87v-1.29h22.22v1.29H363.66v27.89h-1.42Z"/><path class="cls-2" d="M425.34,577.17h1.33L439,594.93l12.3-17.76h1.33v29.19h-1.42V579.63L439,597.14h-.08l-12.22-17.51v26.73h-1.38Z"/><path class="cls-2" d="M477.54,593.76V577.17H479v16.51c0,7.76,4.17,11.84,10.51,11.84s10.38-3.92,10.38-11.76V577.17h1.42v16.47c0,8.71-4.79,13.18-11.84,13.18S477.54,602.39,477.54,593.76Z"/><path class="cls-2" d="M526.16,577.17h20.55v1.29H527.58V591h17.3v1.29h-17.3v12.76h19.35v1.29H526.16Z"/><path class="cls-2" d="M570.57,577.17H572v27.89h17.59v1.29h-19Z"/><path class="cls-2" d="M612.18,577.17h1.42v27.89H631.2v1.29h-19Z"/><path class="cls-2" d="M653.8,577.17h20.55v1.29H655.22V591h17.3v1.29h-17.3v12.76h19.35v1.29H653.8Z"/><path class="cls-2" d="M698.21,577.17h12c3.71,0,6.55,1,8.34,2.79a7.66,7.66,0,0,1,2.13,5.42v.08c0,4.92-3.79,7.8-9.17,8.26l9.71,12.63h-1.79L710,593.89H699.62v12.47h-1.42Zm11.67,15.43c6,0,9.42-2.92,9.42-7v-.08c0-4.38-3.38-7-9.13-7H699.62V592.6Z"/><path class="cls-2" d="M165.92,500.57l3.47-5.07a142.36,142.36,0,0,0,9.74-15c3.74-6.44,7.67-13.85,11.71-22.07,3-5.56,5.95-11.5,8.72-17.66s5.48-12.54,8.1-19.07c5.09-12.54,9.57-25,13.31-36.91A148.94,148.94,0,0,0,227,359c-2.15.09-5.13.18-9.06.27l-.87,0a5.19,5.19,0,0,0-.62,0,14.58,14.58,0,0,1-1.92.12c-.36,0-.73,0-1,0-12,.21-14.83,1.08-15.28,1.25-1.29.5-1.48,1.06-1.54,1.26q-3.16,10.62-6,19.85c-1.91,6.15-3.72,12-5.47,17.53-3.76,11.31-7.56,21.47-11.26,30.22a267.33,267.33,0,0,1-12.59,25.75c-3.76,7.06-8,14.3-12.73,21.52Q142,487,133.89,499.33Z"/><path class="cls-3" d="M86.82,501.21q17.57.64,29.95,1.12,3.69.26,6.77.27c2,0,3.61.07,5.05.17l2.92.21,48.73,2.47a11.78,11.78,0,0,0,2.21.34c1.77.13,3.7.19,5.73.19h.43c1.94,0,3.87-.07,5.75-.2a79.06,79.06,0,0,0,8.73-.63c2.54-.32,4.86-.54,6.89-.65l.64,0,.61-.19a24.24,24.24,0,0,1,3-.78,16.86,16.86,0,0,0,3.47-.93l2-.81.77-2c5.56-14.31,11.11-28.24,16.51-41.39s11-25.71,16.54-37.19c5.33-11.56,10.63-22.22,15.77-31.71a211.84,211.84,0,0,1,15-24.17A95.12,95.12,0,0,1,293,354.85a93.22,93.22,0,0,1,8.93-8.11c6.59-5,12.75-8.61,18.29-10.67,6.16-2.29,9.33-2.77,10.91-2.77h.16a5.23,5.23,0,0,1,0,1,8.42,8.42,0,0,1-.4,2c-.26.8-.52,1.52-.78,2.16l-.44.71a6.61,6.61,0,0,0-.57,1.2,265.17,265.17,0,0,0-14.52,24.13c-5.69,10.44-11.59,21.88-17.51,34-1.88,3.65-3.7,7.32-5.39,10.88s-3.48,7.16-5.3,10.7c-6.14,13.46-12,26.52-17.48,38.88-5.59,12.62-10.08,23.36-13.35,31.94l-3.15,8.26,2.59-.08a109.79,109.79,0,0,0,29.78-10.58l.14-.11.51-.51a.73.73,0,0,1,.51-.25l3.67-3.16a43.11,43.11,0,0,0,3.92-3.92q1.52-1.77,3.29-3.54a35.34,35.34,0,0,0,3.29-3.8,49.48,49.48,0,0,0,3.41-3.79q1.64-2,3.16-3.79l2.53-4a28.18,28.18,0,0,0,2-3.79q.76-2.28,1.26-3.67a22.35,22.35,0,0,1,1-2.4,4,4,0,0,1,2-1.52,13.56,13.56,0,0,1,3-.25h7.59q3,0,5.44.13t2.91.13c1.18.17,1.85.68,2,1.52a4.4,4.4,0,0,1-.25,2.53l-.51,1-.51,1-.5,1a3,3,0,0,1-.51.76q-2.53,4.81-5.69,11.51t-6.45,13.79q-2.79,5.82-5.31,11.51t-4.81,10c-.5,1-1,2-1.39,2.91a22.8,22.8,0,0,0-.88,2.15,1.07,1.07,0,0,0,.13.51.4.4,0,0,0,.38.25,6.62,6.62,0,0,0,2.28-.63,23.16,23.16,0,0,0,4-2.4,163.84,163.84,0,0,0,20-15.56q9.61-8.73,18.72-17.83l8.09-8.09,8.09-8.09q2.78-2.78,4.17-4.3a12.22,12.22,0,0,1,2.66-2.28,6,6,0,0,1,3.54-1.39q2-.12,7.08-.13h1a56.19,56.19,0,0,1,7.46.38c1.77.25,2.66,1,2.66,2.15v.89a1.57,1.57,0,0,1-.51,1.14q-4.3,8.86-8.09,16.95t-7.59,15.94q-.51,1.27-1,2.28t-1,2.28q-2.28,4.3-4.43,8.85T373,509.89a10.8,10.8,0,0,0-.76,1.9,5.4,5.4,0,0,0-.25,1.39,1.63,1.63,0,0,0,.51,1.39,2,2,0,0,0,1.26.38,8.06,8.06,0,0,0,2.28-.38,17.61,17.61,0,0,0,2.78-1.14,1.64,1.64,0,0,1,.63-.38,1.56,1.56,0,0,0,.63-.38q1.77-1,3.41-2t3.16-2a128.9,128.9,0,0,0,13.07-9.86,103.38,103.38,0,0,0,.32,19.77,119.77,119.77,0,0,1-15.67,10.33,158.85,158.85,0,0,1-17.2,8.22,31.15,31.15,0,0,1-10.62,2.4q-6.58,0-10-2.4a8.6,8.6,0,0,1-3.67-7,16.49,16.49,0,0,1,.51-4,26.26,26.26,0,0,1,1.52-4.3q3.54-9.11,4.93-12.65t2.4-6.07l.25-.25a.51.51,0,0,1,.13-.38.52.52,0,0,0,.13-.38l-1-1q-15.94,15.43-29.85,24t-21.5,12.39a18,18,0,0,1-4.93,1.52,34.78,34.78,0,0,1-5.94.51,15.24,15.24,0,0,1-7.34-1.77q-3.29-1.77-3.29-6.58v-1a34.42,34.42,0,0,1,1.26-6.45,63.69,63.69,0,0,1,3.79-10.5q.51-1,1-1.9l.36-.66c-1.75,1-3.5,1.9-5.23,2.79l-.95.78-.72.05a196.86,196.86,0,0,1-27.86,11.3,51.86,51.86,0,0,0-10,2l-2,.71-.88,2c-1.31,2.94-2.91,7-4.76,12s-3.73,10.16-5.71,15.63c-.41,1.25-.78,2.4-1.13,3.63a9.92,9.92,0,0,1-.94,2.17l-.26.44-.16.47c-2.69,7.8-5.18,15.34-7.42,22.42-2.34,7.36-3.87,12-4.81,14.73a5.83,5.83,0,0,1-.95,1.78,8.1,8.1,0,0,1-2.35.27c-.37,0-.78,0-1.24,0l-16.74-1.18c-6.74-.48-8.24-1.41-8.3-1.45a1.48,1.48,0,0,1-.55-.58c0-.12.06-.25.1-.4a2.26,2.26,0,0,1,.22-.57L183,599l.17-.64c1.76-6.4,3.89-13.13,6.34-20s5.06-14.17,7.72-21.44c1.06-3.25,2.14-6.39,3.29-9.61s2.29-6.54,3.33-9.71l2-6.06-6.37-.45c-3-.21-6.25-.37-9.77-.49-3.07-.1-6.19-.14-9.28-.14h-1.17c-2.79-.2-5.83-.34-9-.43q-2.47-.06-4.78-.06-2,0-3.92,0c-2.77-.2-5.49-.32-7.94-.36h-1.49c-1.94,0-3.75.06-5.35.17l-2.13.15L109.54,528l-11.87-.12q-3.79,0-7.46,0-11.68,0-22.06.4,1.24,15,3.48,29.7a119.06,119.06,0,0,0,10.64-6.17,117.42,117.42,0,0,0,18.86-15.39l4.59-4.58,35.91,1.75c-16.82,19.79-35.28,34.69-54.91,44.28q-5.15,2.51-10.62,4.59c41.48,195,215,341.68,422.17,341.68,238,0,431.6-193.61,431.6-431.6S736.26,60.88,498.28,60.88,66.69,254.49,66.69,492.47c0,3,0,5.9.1,8.84,3.77-.16,7.51-.26,11.17-.26Q82.44,501.05,86.82,501.21Z"/><path class="cls-2" d="M141.65,533.52l-35.91-1.75-4.59,4.58a117.42,117.42,0,0,1-18.86,15.39,119.06,119.06,0,0,1-10.64,6.17q1.89,12.35,4.47,24.47,5.47-2.09,10.62-4.59C106.36,568.22,124.82,553.32,141.65,533.52Z"/><path class="cls-2" d="M90.22,527.81q3.67,0,7.46,0l11.87.12,35.14,1.94,2.13-.15c1.61-.11,3.41-.17,5.35-.17h1.49c2.45,0,5.17.16,7.94.36q1.89,0,3.92,0,2.31,0,4.78.06c3.12.09,6.16.23,9,.43h1.17c3.09,0,6.21,0,9.28.14,3.52.11,6.81.28,9.77.49l6.37.45-2,6.06q-1.56,4.76-3.33,9.71c-1.15,3.21-2.23,6.36-3.29,9.61q-4,10.92-7.72,21.44c-2.45,6.88-4.58,13.62-6.34,20L183,599l-.34.58a2.26,2.26,0,0,0-.22.57c0,.15-.07.28-.1.4a1.48,1.48,0,0,0,.55.58c.06,0,1.56,1,8.3,1.45l16.74,1.18c.45,0,.86,0,1.24,0a8.1,8.1,0,0,0,2.35-.27,5.83,5.83,0,0,0,.95-1.78c.94-2.69,2.47-7.37,4.81-14.73,2.24-7.08,4.74-14.62,7.42-22.42l.16-.47.26-.44a9.92,9.92,0,0,0,.94-2.17c.36-1.23.72-2.39,1.13-3.63q3-8.21,5.71-15.63c1.84-5,3.44-9.06,4.76-12l.88-2,2-.71a51.86,51.86,0,0,1,10-2,196.86,196.86,0,0,0,27.86-11.3l.72-.05.95-.78c1.73-.88,3.48-1.82,5.23-2.79l-.36.66q-.51.89-1,1.9a63.69,63.69,0,0,0-3.79,10.5,34.42,34.42,0,0,0-1.26,6.45v1q0,4.81,3.29,6.58a15.24,15.24,0,0,0,7.34,1.77,34.78,34.78,0,0,0,5.94-.51,18,18,0,0,0,4.93-1.52q7.59-3.79,21.5-12.39t29.85-24l1,1a.52.52,0,0,1-.13.38.51.51,0,0,0-.13.38l-.25.25q-1,2.53-2.4,6.07t-4.93,12.65a26.26,26.26,0,0,0-1.52,4.3,16.49,16.49,0,0,0-.51,4,8.6,8.6,0,0,0,3.67,7q3.41,2.4,10,2.4a31.15,31.15,0,0,0,10.62-2.4,158.85,158.85,0,0,0,17.2-8.22,119.77,119.77,0,0,0,15.67-10.33,103.38,103.38,0,0,1-.32-19.77,128.9,128.9,0,0,1-13.07,9.86q-1.52,1-3.16,2t-3.41,2a1.56,1.56,0,0,1-.63.38,1.64,1.64,0,0,0-.63.38,17.61,17.61,0,0,1-2.78,1.14,8.06,8.06,0,0,1-2.28.38,2,2,0,0,1-1.26-.38,1.63,1.63,0,0,1-.51-1.39,5.4,5.4,0,0,1,.25-1.39,10.8,10.8,0,0,1,.76-1.9q2.28-4.55,4.43-9.11t4.43-8.85q.51-1.26,1-2.28t1-2.28q3.79-7.84,7.59-15.94t8.09-16.95a1.57,1.57,0,0,0,.51-1.14v-.89c0-1.18-.88-1.9-2.66-2.15a56.19,56.19,0,0,0-7.46-.38h-1q-5.06,0-7.08.13a6,6,0,0,0-3.54,1.39,12.22,12.22,0,0,0-2.66,2.28q-1.39,1.52-4.17,4.3l-8.09,8.09-8.09,8.09q-9.11,9.11-18.72,17.83a163.84,163.84,0,0,1-20,15.56,23.16,23.16,0,0,1-4,2.4,6.62,6.62,0,0,1-2.28.63.4.4,0,0,1-.38-.25,1.07,1.07,0,0,1-.13-.51,22.8,22.8,0,0,1,.88-2.15c.42-.93.89-1.9,1.39-2.91q2.28-4.3,4.81-10t5.31-11.51q3.28-7.08,6.45-13.79T334.3,458a3,3,0,0,0,.51-.76l.5-1,.51-1,.51-1a4.4,4.4,0,0,0,.25-2.53c-.17-.84-.85-1.35-2-1.52q-.51,0-2.91-.13t-5.44-.13h-7.59a13.56,13.56,0,0,0-3,.25,4,4,0,0,0-2,1.52,22.35,22.35,0,0,0-1,2.4q-.51,1.39-1.26,3.67a28.18,28.18,0,0,1-2,3.79l-2.53,4q-1.52,1.77-3.16,3.79a49.48,49.48,0,0,1-3.41,3.79,35.34,35.34,0,0,1-3.29,3.8q-1.77,1.77-3.29,3.54a43.11,43.11,0,0,1-3.92,3.92L286,487.63a.73.73,0,0,0-.51.25l-.51.51-.14.11A109.79,109.79,0,0,1,255,499.08l-2.59.08,3.15-8.26c3.27-8.58,7.77-19.32,13.35-31.94,5.47-12.36,11.34-25.42,17.48-38.88,1.82-3.54,3.61-7.14,5.3-10.7s3.51-7.23,5.39-10.88c5.92-12.12,11.82-23.56,17.51-34a265.17,265.17,0,0,1,14.52-24.13,6.61,6.61,0,0,1,.57-1.2l.44-.71c.25-.64.51-1.36.78-2.16a8.42,8.42,0,0,0,.4-2,5.23,5.23,0,0,0,0-1h-.16c-1.58,0-4.75.48-10.91,2.77-5.54,2.06-11.7,5.65-18.29,10.67a93.22,93.22,0,0,0-8.93,8.11,95.12,95.12,0,0,0-8.74,10.43,211.84,211.84,0,0,0-15,24.17c-5.14,9.49-10.44,20.15-15.77,31.71-5.56,11.48-11.13,24-16.54,37.19s-11,27.08-16.51,41.39l-.77,2-2,.81a16.86,16.86,0,0,1-3.47.93,24.24,24.24,0,0,0-3,.78l-.61.19-.64,0c-2,.11-4.35.33-6.89.65a79.06,79.06,0,0,1-8.73.63c-1.88.13-3.82.2-5.75.2h-.43c-2,0-4-.07-5.73-.19a11.78,11.78,0,0,1-2.21-.34L131.5,503l-2.92-.21c-1.45-.1-3.1-.16-5.05-.17s-4.31-.09-6.77-.27q-12.38-.47-29.95-1.12-4.37-.16-8.86-.16c-3.66,0-7.4.1-11.17.26q.27,13.56,1.38,26.91Q78.54,527.82,90.22,527.81Z"/><path class="cls-2" d="M498.28,43.8c-247.4,0-448.67,201.27-448.67,448.67q0,5,.12,10.06Q50,516,51.11,529.21q1.47,18,4.34,35.63,1.86,11.43,4.29,22.66c43.71,201.91,223.74,353.64,438.54,353.64C745.68,941.15,947,739.87,947,492.47S745.68,43.8,498.28,43.8Zm0,880.27c-207.16,0-380.69-146.71-422.17-341.68q-2.58-12.11-4.47-24.47-2.24-14.69-3.48-29.7-1.1-13.34-1.38-26.91c-.06-2.94-.1-5.89-.1-8.84,0-238,193.61-431.59,431.6-431.59s431.6,193.61,431.6,431.59S736.26,924.07,498.28,924.07Z"/><path class="cls-2" d="M600.57,498.56,598,500.65q-2.65,2.15-5.95,4.68a7.93,7.93,0,0,1-1.26,1l-1.51,1a73.81,73.81,0,0,1-7.84,5.19q-3.79,2.15-5.31,1.64a28,28,0,0,0,3.92-8A79.27,79.27,0,0,0,582.7,496a68.06,68.06,0,0,0,1.14-7.08q.38-3.54.63-6.32a65.08,65.08,0,0,0,.25-7V447.15c.17-.51.33-1,.5-1.39a3.38,3.38,0,0,1,.76-1.14,3.1,3.1,0,0,1,.76-1.26,8.59,8.59,0,0,0,1-1.27,29.77,29.77,0,0,0,1.65-3.29,16.16,16.16,0,0,0,1.14-5.06v-.51a2,2,0,0,1,.25-.76v-1a17.87,17.87,0,0,0-2.53-8.35q-2.27-3.79-7.59-3.79a12,12,0,0,0-10.12,5.06,30.83,30.83,0,0,0-5.31,11.13,35.25,35.25,0,0,0-1.14,5.19,33.68,33.68,0,0,0-.38,4.68v1.77a187.09,187.09,0,0,1-11.38,15.56,228,228,0,0,1-19.48,21.37,9.31,9.31,0,0,0-1.39,1.14l-1.39,1.39a22.24,22.24,0,0,1-2.28,1.9,28.57,28.57,0,0,0-3,2.66.73.73,0,0,0-.5.25q-2,1.77-3.79,3.29T518.7,497v0c-2.91,2.23-5.61,4.25-8.08,6q-4.55,3.29-8.85,6.58l-1.52,1-1.52,1q-2,1.52-4.3,3T489.61,518a9.76,9.76,0,0,1-3,1.39,12.47,12.47,0,0,1-3,.38,7.76,7.76,0,0,1-4.43-1.26,3.5,3.5,0,0,1-1.64-3.54,6.41,6.41,0,0,1,.63-2.66,13,13,0,0,1,1.9-2.91A249.52,249.52,0,0,0,504.41,476a237.73,237.73,0,0,0,18.34-36.43,188.67,188.67,0,0,0,9-29.09,128.92,128.92,0,0,0,3.16-27.57q0-1.77-.13-3.42c-.09-1.09-.12-2.15-.12-3.16a11.87,11.87,0,0,0-.13-1.64,11.42,11.42,0,0,1-.12-1.64v-.76a47.46,47.46,0,0,0-2.91-11.76q-2.15-5.44-7-5.44-3.29,0-8.09,3.67T505,371.27a153.59,153.59,0,0,0-13.41,21q-6.07,11.38-11.13,23Q477,424.14,473.93,433t-5.06,16.69q-2.79-.5-5.94-.76t-6.7-.25a59.48,59.48,0,0,0-13.91,1.77,47,47,0,0,0-14.92,6.83q-2.53,1.77-4.93,3.79t-4.93,4.55a70.84,70.84,0,0,0-10.37,14.92,39.48,39.48,0,0,0-3.89,13.07c-.8,8.59-1.54,26.53,4.58,37.55a19,19,0,0,0,3.36,3.89q5.31,4.68,15.18,4.68,1.26,0,2.78-.13t3.29-.38a47.76,47.76,0,0,0,11.76-3.16,49.78,49.78,0,0,0,12.27-7.46,14.65,14.65,0,0,1,.89,1.52,11.91,11.91,0,0,1,.63,1.52q3.28,5.31,6.7,7.08a16.52,16.52,0,0,0,7.71,1.77h1.77a1,1,0,0,1,.76-.25h.76a38.46,38.46,0,0,0,9.61-2.66,115.47,115.47,0,0,0,13.41-6.2,95.34,95.34,0,0,0,9.87-5.69,82.85,82.85,0,0,0,8.35-6.2c.78-.65,1.49-1.3,2.16-2a.63.63,0,0,0,.37-.07q3.29-2.53,7.84-6.83t9.36-9.36a2.46,2.46,0,0,0,.88-.76,2.52,2.52,0,0,1,.89-.76q7.59-7.84,13.91-14.17t7.59-6.07c.34,0,.59.38.76,1.14a15.49,15.49,0,0,1,.25,3.16,52,52,0,0,1-.63,7.34q-.64,4.3-1.64,9.11a95.28,95.28,0,0,1-4.3,12.52q-2.53,5.95-5.82,7.72a6,6,0,0,1-1.9,1c-.59.17-1.23.34-1.9.51h-1a16.23,16.23,0,0,1-3.67-.51q-2.15-.5-5.94-1a17.1,17.1,0,0,0-2.15-.38,22.07,22.07,0,0,0-2.4-.13,6.88,6.88,0,0,0-3.67,1q-1.65,1-1.9,4v1a9.88,9.88,0,0,0,.25,2.15,15,15,0,0,0,.76,2.4,16.89,16.89,0,0,0,2.78,4.3,9.21,9.21,0,0,0,4,2.78q4.3,1,7,1.52a24.6,24.6,0,0,0,4.43.51,11.72,11.72,0,0,0,3.29-.38,14.42,14.42,0,0,0,2.28-.88h.25a12.43,12.43,0,0,1,5.82-1.26,21.17,21.17,0,0,0,2.4-.13,19.7,19.7,0,0,1,2.15-.13h1.77a43.37,43.37,0,0,0,7.72-.76,69.17,69.17,0,0,0,11-3.29,30.36,30.36,0,0,0,3.16-1.26q1.65-.76,3.42-1.77a33.79,33.79,0,0,0,4-2.4q2-1.39,3.79-2.66c1.77-1.31,3.78-2.88,6-4.65C599.13,514.47,599,507.38,600.57,498.56ZM486.2,457.15q2.65-9.74,5.94-19.6,5.31-15.94,12.14-31.49a233,233,0,0,1,14.42-28l.76.76a161.65,161.65,0,0,1-3.54,19.35q-2.53,10.5-6.07,21.12a275,275,0,0,1-12.52,31.49,136.67,136.67,0,0,1-15.05,25.42l-.5-.51Q483.54,466.89,486.2,457.15Zm-22.64,10.25q-.51,2-1.39,5.19t-1.9,7q-.76,3.54-1.64,7.21a68.92,68.92,0,0,0-1.39,7.72q-.26,2.53-.51,5.19c-.17,1.77-.25,3.5-.25,5.19a5.09,5.09,0,0,1-1.52,3,21.65,21.65,0,0,1-4,3.54,31.44,31.44,0,0,1-3.79,2.78q-2,1.27-4,2.28a10,10,0,0,1-1.64.88,10.27,10.27,0,0,0-1.64.89,11.21,11.21,0,0,1-2.78,1,12.86,12.86,0,0,1-2.53.25,7.46,7.46,0,0,1-6.32-3,14.35,14.35,0,0,1-2.78-6.83q-.25-2-.38-3.67c-.09-1.1-.13-2.23-.13-3.42q0-12.39,6.07-20.24a44,44,0,0,1,13.41-11.89,39.62,39.62,0,0,1,8.73-3.67,27.41,27.41,0,0,1,7-1.14,8,8,0,0,1,2.91.38A1.07,1.07,0,0,1,463.56,467.39Z"/><path class="cls-2" d="M939.63,456.46c-12.66,18.77-33.16,40.78-33.16,40.78q-1.51,1.27-4.17,3.41t-5.95,4.68a8.05,8.05,0,0,1-1.26,1l-1.52,1a73.55,73.55,0,0,1-7.84,5.19q-3.8,2.15-5.31,1.64a28.11,28.11,0,0,0,3.92-8A79.66,79.66,0,0,0,887,496a68.7,68.7,0,0,0,1.14-7.08q.38-3.54.63-6.32a65.26,65.26,0,0,0,.25-7V447.15c.17-.51.34-1,.51-1.39a3.34,3.34,0,0,1,.76-1.14,3.13,3.13,0,0,1,.76-1.26,8.59,8.59,0,0,0,1-1.27,29.82,29.82,0,0,0,1.64-3.29,16.09,16.09,0,0,0,1.14-5.06v-.51a2,2,0,0,1,.25-.76v-1a17.92,17.92,0,0,0-2.53-8.35q-2.28-3.79-7.59-3.79a12,12,0,0,0-10.12,5.06,30.87,30.87,0,0,0-5.31,11.13,35.58,35.58,0,0,0-1.14,5.19,33.68,33.68,0,0,0-.38,4.68v1.77a187.08,187.08,0,0,1-11.38,15.56,228,228,0,0,1-19.48,21.37,9.2,9.2,0,0,0-1.39,1.14l-1.39,1.39a22.24,22.24,0,0,1-2.28,1.9,28.57,28.57,0,0,0-3,2.66.73.73,0,0,0-.5.25q-2,1.77-3.79,3.29a6.8,6.8,0,0,0-1.63,1.8q-8.62,6.67-14.56,10.85c-.85.68-1.77,1.35-2.78,2s-1.94,1.27-2.78,1.77a8.79,8.79,0,0,0-.89.51,4.38,4.38,0,0,0-.63.51q-3.29,1.77-5.06,2.53a8,8,0,0,1-3,.76,1.78,1.78,0,0,1-1.26-.76,2.2,2.2,0,0,1-.25-1v-.5a.73.73,0,0,1,.25-.51v-.51a61.43,61.43,0,0,1,2.91-7.84q1.9-4.3,4.17-8.6.5-1,1-1.9c.34-.59.67-1.14,1-1.64q2-4.3,4-8.09t3.54-6.83a8.68,8.68,0,0,0,.88-1.77,21.11,21.11,0,0,1,.89-2,30.09,30.09,0,0,0,1.52-2.91,31.81,31.81,0,0,0,1.26-3.16,43.22,43.22,0,0,0,2-6.07,22.34,22.34,0,0,0,.76-5.31,9.21,9.21,0,0,0-.63-3.54,4.35,4.35,0,0,0-2.15-2.28,14.29,14.29,0,0,0-4.43-1.64,24.09,24.09,0,0,0-4.17-.38,22,22,0,0,0-5.31.63,24.85,24.85,0,0,0-5.06,1.9,73.2,73.2,0,0,0-9.36,5.82q-6.58,4.55-13.91,9.87a3.85,3.85,0,0,1-1,.76,4,4,0,0,0-1,.76q-6.33,4.55-11.89,8.85t-8.35,6.58q-4.55,3.79-5.94,4t-1.39-.25v-.51q5.31-11.38,8.6-18.47,3-6.32,5.57-11.89t3-6.58H737.5q-1-.5-1.9.76a14.8,14.8,0,0,0-1.64,3.29c-.17.5-.34,1-.5,1.52a6.53,6.53,0,0,1-.76,1.52c-.17.51-.34,1-.5,1.39s-.34.88-.51,1.39a43.37,43.37,0,0,1-4.93,7.34q-3.93,5.06-9.23,10.88-1.78,1.77-3.67,3.79a54.25,54.25,0,0,1-3.92,3.79q-2.78,2.53-5.56,4.93a52.28,52.28,0,0,1-5.06,3.92l-1,1-1,1c-.13.17-.23.35-.34.52a39.72,39.72,0,0,1-4.84,3,15,15,0,0,1-7,1.77h-.89a2,2,0,0,1-.88-.25,2.72,2.72,0,0,1-.88-.13,6.52,6.52,0,0,1-.88-.38l.5-1,.51-1q1-2.28,1.77-4.43a14,14,0,0,0,.76-4.68,18.75,18.75,0,0,0-.38-3.67,20.32,20.32,0,0,0-1.39-4.17,13,13,0,0,0,3.92-5.56,21.33,21.33,0,0,0,1.39-7.84q0-1.52-.13-3a13.25,13.25,0,0,0-.63-3,29.92,29.92,0,0,0-8.22-14.67q-6.45-6.58-18.59-6.32h-1.26q-20,.76-32.63,11.51t-18.47,23.4a100.29,100.29,0,0,0-3.41,10c-.09.34-.17.66-.26,1l-.52,2.06-.15.68c-.45,2.3-2.78,15.3-.59,27.31l.06-.05q1.52,8.52,5.5,12.9c4,4.43,8.49,7.21,13.34,8.37,3.58.54,6.13,1,7.88,1.4.91.06,1.8.09,2.68.09a49,49,0,0,0,22.77-4.81A54,54,0,0,0,674.52,520a7.22,7.22,0,0,0,3.16,1.39,19.87,19.87,0,0,0,3.92.38,13.27,13.27,0,0,0,1.9-.13,13.54,13.54,0,0,1,1.9-.13,36.21,36.21,0,0,0,7.59-2.28,21.62,21.62,0,0,0,3.36-1.78,4.42,4.42,0,0,0,2.08-1,24.43,24.43,0,0,0,2.91-2.53,2,2,0,0,1,.51-.38,2,2,0,0,0,.5-.38q1.77-1.52,4.55-4.3h.5q-1,2-2.53,5.82t-3,8.35a12.85,12.85,0,0,1-.63,1.9,4.79,4.79,0,0,0-.38,1.9,9.4,9.4,0,0,0-.63,2.4,22,22,0,0,0-.13,2.4,8.33,8.33,0,0,0,2,5.94,7,7,0,0,0,5.31,2.15,11.85,11.85,0,0,0,1.64-.13,6.4,6.4,0,0,0,1.9-.63,13,13,0,0,0,1.9-.63,5.25,5.25,0,0,0,1.64-1.14l9.23-7.59q4.93-4,10-8.1a14.23,14.23,0,0,1,1.14-1,6.61,6.61,0,0,1,1.14-.76q10.87-9.11,20.36-17.2t13.53-11.38a9.76,9.76,0,0,1,1-.89,6.58,6.58,0,0,1,1-.63.51.51,0,0,1,.13-.38.51.51,0,0,1,.38-.13,54.9,54.9,0,0,1,8.22-5.94q3.42-1.9.13,5.19-5.31,10.37-8.35,16.95a7,7,0,0,1-.63,1.39,7,7,0,0,0-.63,1.39q-1.27,3-2.53,5.82t-2.27,5.31q-1,3.29-1.77,6.07a19.44,19.44,0,0,0-.76,5.06A8.38,8.38,0,0,0,767.1,537q3,2.28,10.62,2.28a33.08,33.08,0,0,0,7.72-1,58.25,58.25,0,0,0,8.47-2.78q3.28-1.52,6.45-3.16t6.2-3.42q5.82-3.54,10.25-6.45l5.95-3.92a13,13,0,0,0,3-2.58c1.75-1.45,3.71-3.2,5.89-5.26q4.56-4.3,9.36-9.36a2.46,2.46,0,0,0,.88-.76,2.51,2.51,0,0,1,.88-.76q7.59-7.84,13.91-14.17t7.59-6.07q.5,0,.76,1.14a15.67,15.67,0,0,1,.25,3.16,52,52,0,0,1-.63,7.34q-.64,4.3-1.64,9.11a95.3,95.3,0,0,1-4.3,12.52q-2.53,5.95-5.82,7.72a6,6,0,0,1-1.9,1c-.59.17-1.23.34-1.9.51h-1a16.23,16.23,0,0,1-3.67-.51q-2.15-.5-5.94-1a17.18,17.18,0,0,0-2.15-.38,22.07,22.07,0,0,0-2.4-.13,6.87,6.87,0,0,0-3.67,1q-1.65,1-1.9,4v1a9.74,9.74,0,0,0,.25,2.15,15.27,15.27,0,0,0,.76,2.4,17,17,0,0,0,2.78,4.3,9.19,9.19,0,0,0,4,2.78q4.3,1,7,1.52a24.6,24.6,0,0,0,4.43.51,11.73,11.73,0,0,0,3.29-.38,14.42,14.42,0,0,0,2.28-.88h.25a12.43,12.43,0,0,1,5.82-1.26,21.13,21.13,0,0,0,2.4-.13,19.78,19.78,0,0,1,2.15-.13h1.77a43.33,43.33,0,0,0,7.72-.76,69.18,69.18,0,0,0,11-3.29,30.58,30.58,0,0,0,3.16-1.26q1.64-.76,3.42-1.77a33.77,33.77,0,0,0,4-2.4c1.35-.93,2.61-1.81,3.79-2.66C922.49,507.88,952.29,437.69,939.63,456.46ZM665.79,475.74a5.18,5.18,0,0,1-.38,1,15.37,15.37,0,0,1-2.66,2.53,35.44,35.44,0,0,0-3.41,3,52.88,52.88,0,0,0-3.54,4.55,16.46,16.46,0,0,0-2.53,6.07c-.17.85-.3,1.64-.38,2.4a20.84,20.84,0,0,0-.13,2.4,17.49,17.49,0,0,0,.51,4.3,17.07,17.07,0,0,0,1.26,3.54q.5,1.27.88,2.28t.63,1.77a22.93,22.93,0,0,1-4.3,4.93,19.56,19.56,0,0,1-4.55,2.91,13.86,13.86,0,0,1-3.67,1,27.5,27.5,0,0,1-3.67.25,17.56,17.56,0,0,1-4.3-.51,12.11,12.11,0,0,1-3.29-1.26.72.72,0,0,1-.5-.25.75.75,0,0,0-.5-.25,10.58,10.58,0,0,1-3.54-5.44,26.1,26.1,0,0,1-1-7.46,29.57,29.57,0,0,1,.25-3.92c.17-1.27.34-2.57.51-3.92a52.8,52.8,0,0,1,3-10.25,35.55,35.55,0,0,1,4.55-8.22q5.56-7.08,10.88-10.12t9.36-3a9.79,9.79,0,0,1,7.59,3,11.83,11.83,0,0,1,3,7.59A4.18,4.18,0,0,1,665.79,475.74Z"/></svg>