<svg id="Layer_1" data-name="Layer 1" xmlns="http://www.w3.org/2000/svg" xmlns:xlink="http://www.w3.org/1999/xlink" viewBox="0 0 1000 1000"><defs><style>.cls-1{filter:url(#luminosity-noclip);}.cls-2{fill:#fff;}.cls-3{fill:#860912;}.cls-4{fill:#51050b;}.cls-5{fill:#040f1c;}.cls-6{fill:#d9d9d9;}.cls-7{fill:url(#radial-gradient);}.cls-8{mask:url(#mask);}.cls-9{mask:url(#mask-2);}.cls-10{fill:#bd0c19;}</style><radialGradient id="radial-gradient" cx="499.94" cy="501.72" r="329.9" gradientUnits="userSpaceOnUse"><stop offset="0" stop-color="#d9d9d9"/><stop offset="0.28" stop-color="#d4d5d4"/><stop offset="0.58" stop-color="#c7c8c7"/><stop offset="0.91" stop-color="#b1b3b1"/><stop offset="1" stop-color="#a9aba9"/></radialGradient><filter id="luminosity-noclip" x="257.31" y="178.67" width="482.44" height="426.91" filterUnits="userSpaceOnUse" color-interpolation-filters="sRGB"><feFlood flood-color="#fff" result="bg"/><feBlend in="SourceGraphic" in2="bg"/></filter><mask id="mask" x="257.31" y="178.67" width="482.44" height="426.91" maskUnits="userSpaceOnUse"><polygon class="cls-1" points="474.38 178.67 498.72 605.58 519.75 178.67 474.38 178.67"/></mask><mask id="mask-2" x="170.33" y="158.18" width="653.39" height="688.52" maskUnits="userSpaceOnUse"><path class="cls-2" d="M186.76,232.27c-4.91,213.83,10.39,293,40,362.11C288.57,738.63,460.1,827.62,499.94,846.7c39.83-19.08,211.37-108.06,273.19-252.32,29.6-69.07,44.91-148.29,40-362.11-7.36.22-14.69.33-21.91.33-152.37,0-251.17-48.35-289.33-74.41l-1.93,2L498,158.18c-38.15,26.07-136.94,74.42-289.32,74.42h0C201.42,232.61,194.11,232.49,186.76,232.27Z"/></mask></defs><title>Artboard 4 copy</title><path class="cls-3" d="M753.09,767q86.83-10.27,172.11-25.49l-38.32-48.46,36-62.47q-84.06,15.31-169.75,25.75Z"/><path class="cls-3" d="M246.92,767Q160.07,756.77,74.8,741.55l38.33-48.46-36-62.47q84.06,15.31,169.75,25.75Z"/><path class="cls-4" d="M854.28,772.09V683.5L752.75,656.38V745Z"/><path class="cls-4" d="M145.07,772.09V683.5l101.52-27.12V745Z"/><path class="cls-5" d="M888.16,166.21c-242.1,13.7-375.41-85.93-387.71-98.86l-.51-.55-.51.55c-12.29,12.94-145.6,112.57-387.7,98.86-7.47,269.77,10.75,369,48,455.92,80.14,187,306,295.44,338.24,310.15l2,.91,2-.91C534.2,917.58,760,809.13,840.17,622.14c37.23-86.89,55.46-186.15,48-455.92"/><path class="cls-2" d="M499.94,936l-3-1.39c-17.85-8.13-81.53-38.72-151.62-90.74C305,813.93,269.57,782.06,240,749.09c-36.27-40.4-64-82.78-82.56-126-37.06-86.48-55.72-184.91-48.19-457l.07-2.57,2.57.15c15.09.85,30.25,1.29,45.06,1.29,111.74,0,195.48-24.66,246-45.35,58.24-23.83,89.92-49.06,94.64-54l2.33-2.5,2.34,2.52c4.71,5,36.4,30.19,94.62,54,50.56,20.69,134.29,45.35,246,45.35h0c14.82,0,30-.43,45.06-1.29l2.57-.15.07,2.57c7.53,272-11.13,370.49-48.19,457-18.51,43.18-46.28,85.57-82.56,126-29.6,33-65,64.84-105.32,94.74-70.07,52-133.77,82.6-151.62,90.74ZM114.15,168.85C106.83,438,125.34,535.6,162,621.15c18.29,42.68,45.77,84.6,81.68,124.59,29.38,32.72,64.56,64.37,104.58,94.06C418,891.53,481.24,921.93,499,930l1,.44,1-.44c17.74-8.09,81-38.5,150.72-90.21,40-29.7,75.2-61.34,104.58-94.06,35.91-40,63.39-81.91,81.68-124.59C874.54,535.59,893,438,885.73,168.85,871.41,169.61,857,170,843,170h0C730.36,170,646,145.14,595,124.29c-55.87-22.86-87.09-46.56-95.07-53.95-8,7.42-39.23,31.1-95.08,53.94C353.88,145.14,269.47,170,156.92,170,142.85,170,128.48,169.62,114.15,168.85Z"/><path class="cls-6" d="M501.64,867.32C529.25,854.72,722.41,762,791,602c31.86-74.32,47.44-159.22,41-390"/><path class="cls-2" d="M832,212c-207.08,11.72-321.11-68.55-331.63-79.62l-.44-.47-.44.47C489,143.49,375,223.77,167.88,212c-6.39,230.75,9.19,315.66,41,390,68.54,159.95,261.7,252.7,289.31,265.3l1.71.77,1.71-.77C529.25,854.72,722.41,762,791,602c31.86-74.32,47.44-159.22,41-390"/><path class="cls-7" d="M186.76,232.27c-4.91,213.83,10.39,293,40,362.11C288.57,738.63,460.1,827.62,499.94,846.7c39.83-19.08,211.37-108.06,273.19-252.32,29.6-69.07,44.91-148.29,40-362.11-7.36.22-14.69.33-21.91.33-152.37,0-251.17-48.35-289.33-74.41l-1.93-1.45L498,158.18c-38.15,26.07-136.94,74.42-289.32,74.42h0C201.42,232.61,194.11,232.49,186.76,232.27Z"/><g class="cls-8"><path class="cls-2" d="M335,305.88c-8.75,9.18-17.41,7.94-17.41,7.94L265.32,438.9l7.59,19,10.42,5.68,188.56,38.38L495.57,492l-2.37-35.54L359.13,379.21l-8.53-69.64S339,307.4,335,305.88Z"/><path class="cls-5" d="M318.42,312.2,270.53,439.5l8.24,14.82,189.38,41.17a77.27,77.27,0,0,1,34.76-4.39,43.22,43.22,0,0,0-28.5,15.64L268,463.84l-10.72-16.07,53.6-122.16"/><polygon class="cls-5" points="300.17 411.5 275.47 441.85 308.41 423.03 300.17 411.5"/><path class="cls-5" d="M335,305.7s13.4-8,91.13,2.68,77.73,45.56,77.73,45.56l-2.68,123.3S453,431.68,388.63,426.32s-93.8-2.68-93.8-2.68Z"/><path class="cls-2" d="M662,305.88c8.75,9.18,17.41,7.94,17.41,7.94L731.74,438.9l-7.59,19-10.42,5.68L525.17,501.91,501.49,492l2.37-35.54,134.07-77.22,8.53-69.64S658.11,307.4,662,305.88Z"/><path class="cls-5" d="M678.64,312.2l47.89,127.3-8.24,14.82L528.91,495.49a77.27,77.27,0,0,0-34.76-4.39,43.22,43.22,0,0,1,28.5,15.64L729,463.84l10.72-16.07-53.6-122.16"/><polygon class="cls-5" points="696.89 411.5 721.59 441.85 688.65 423.03 696.89 411.5"/><path class="cls-5" d="M662,305.7s-13.4-8-91.13,2.68-77.73,45.56-77.73,45.56l2.68,123.3s48.24-45.57,112.57-50.93,93.8-2.68,93.8-2.68Z"/></g><g class="cls-9"><polygon class="cls-5" points="170.33 548.5 823.72 548.5 795.21 638.57 179.44 638.57 170.33 548.5"/></g><polygon class="cls-5" points="487.73 267.97 499.35 616 504.64 256.35 487.73 267.97"/><rect class="cls-5" x="488.75" y="206.49" width="12.8" height="8.12"/><rect class="cls-5" x="488.75" y="224.54" width="12.8" height="8.11"/><rect class="cls-5" x="488.75" y="240.94" width="12.8" height="8.12"/><polygon class="cls-5" points="480.84 205.63 480.84 205.63 480.84 270.21 489.4 270.21 489.4 205.63 480.84 205.63"/><path class="cls-5" d="M481,269.86l12.94,20.27s.43,3.47-4.09,5.63c-5.4,2.57-13.15.66-17-2.93a14.88,14.88,0,0,1-4.64-8.5c-1.18-2.38-4.2-2.81-5.06.21-.43,4.1,2.8,12.43,9.7,15.76s11.86,3.67,17.67,2.81,10.14-6.91,10.14-6.91L499.76,283,489,268.78"/><path class="cls-5" d="M511.84,194.82,498,572.22l.87-377.4s1.73-6.09,6.47-6.09,6.48,6.09,6.48,6.09"/><path class="cls-5" d="M508.07,287.92a17.57,17.57,0,0,1,12.81,4,14.86,14.86,0,0,1,4.64,8.5c1.18,2.37,4.2,2.81,5.06-.22.43-4.1-2.8-12.43-9.7-15.75a28.24,28.24,0,0,0-12.25-3.2"/><path class="cls-5" d="M407,665.25v-4.71c0-.86,0-1.29-.54-1.29s-3.38,1.4-4.17,1.73a1.56,1.56,0,0,1-.5.14.4.4,0,0,1-.29-.4.65.65,0,0,1,.36-.5c.14-.07,7-4.6,8.3-5.54a2.08,2.08,0,0,1,.93-.47c.32,0,.43.4.43.75s-.22,3.85-.22,9.35V671c0,3.45,0,6.51.14,8.09.11,1.15.29,1.69,1.44,1.94a22.08,22.08,0,0,0,2.37.22.33.33,0,0,1,.32.36c0,.25-.18.32-.58.32-2.73,0-5-.11-6-.11s-3.85.11-6.15.11c-.4,0-.61-.07-.61-.32s.14-.36.29-.36a22.68,22.68,0,0,0,2.88-.25c1.15-.25,1.33-.75,1.44-1.91.14-1.58.21-4.64.18-8.09Z"/><path class="cls-5" d="M436,665.14c0-5.46,0-6.47-.07-7.62s-.36-1.8-1.55-2a7.47,7.47,0,0,0-1.4-.11c-.4,0-.61-.07-.61-.32s.25-.32.79-.32c1.91,0,4.17.11,5.1.11s3.13-.11,4.53-.11c.5,0,.75.07.75.32s-.22.32-.65.32a5.45,5.45,0,0,0-1,.11c-1,.18-1.26.79-1.33,2s-.07,2.16-.07,7.62v6.65c0,1.55.11,3.27.11,5.07a19.29,19.29,0,0,1-.86,6.36c-.75,2.19-2.66,4.67-6.11,6.79a19.59,19.59,0,0,1-1.8.93,1.61,1.61,0,0,1-.72.22.28.28,0,0,1-.29-.29c0-.18.18-.32.79-.65a7.51,7.51,0,0,0,1.73-1.37c2.73-2.77,2.7-6.36,2.7-13.41Z"/><path class="cls-5" d="M446.43,670.32c0-5.21,3.67-12,13.27-12,8,0,12.94,4.42,12.94,11.43s-5.1,12.51-13.26,12.51C450.17,682.29,446.43,675.75,446.43,670.32Zm21.5.58c0-6.76-4.06-10.93-9.17-10.93-3.52,0-7.66,1.87-7.66,9.42,0,6.29,3.59,11.25,9.56,11.25C462.9,680.64,467.93,679.6,467.93,670.9Z"/><path class="cls-5" d="M494.94,668.74c.07,0,.18,0,.18-.22v-.65c0-4.64,0-5.75-.07-6.72s-.36-1.37-1.37-1.65a5.74,5.74,0,0,0-1.22-.11q-.54,0-.54-.32c0-.21.22-.29.68-.29,1.69,0,3.92.07,4.75.07s2.84-.07,4.06-.07c.47,0,.68.07.68.29s-.22.32-.58.32a5.35,5.35,0,0,0-.93.11c-.83.14-1.08.58-1.15,1.65s-.07,1.83-.07,6.47V673c0,2.8,0,5.21.14,6.54.11.86.29,1.44,1.26,1.58a11.39,11.39,0,0,0,1.62.11c.32,0,.5.18.5.32s-.25.32-.65.32c-2,0-4.13-.11-5-.11s-2.95.11-4.17.11c-.43,0-.68-.11-.68-.32s.14-.32.5-.32a4.75,4.75,0,0,0,1.15-.11c.65-.14.83-.72.93-1.62.14-1.29.14-3.63.14-6.44v-2.34a.19.19,0,0,0-.18-.18H483c-.11,0-.22,0-.22.18v2.34c0,2.8,0,5.14.18,6.47.11.86.29,1.44,1.22,1.58a11.76,11.76,0,0,0,1.62.11c.36,0,.5.18.5.32s-.25.32-.65.32c-2,0-4.24-.11-5.14-.11-.72,0-2.8.11-4.06.11-.4,0-.61-.11-.61-.32s.11-.32.5-.32a4.64,4.64,0,0,0,1.12-.11c.65-.14.83-.72.93-1.62.14-1.29.14-3.7.14-6.51v-5.39c0-4.64,0-5.5,0-6.47s-.36-1.37-1.37-1.65a5.87,5.87,0,0,0-1.26-.11c-.32,0-.54-.11-.54-.32s.25-.29.68-.29c1.69,0,3.77.07,4.64.07s2.95-.07,4.21-.07c.43,0,.65.07.65.29s-.18.32-.58.32a4.68,4.68,0,0,0-.9.11c-.86.14-1.11.58-1.19,1.65s-.07,2.08-.07,6.72v.65a.19.19,0,0,0,.22.22Z"/><path class="cls-5" d="M511.69,677.73c.07,2.37.47,3.09,1.08,3.31a5.37,5.37,0,0,0,1.65.22c.36,0,.54.14.54.32s-.29.32-.72.32c-2,0-3.52-.11-4.1-.11-.29,0-1.8.11-3.42.11-.43,0-.72,0-.72-.32s.22-.32.5-.32a6.54,6.54,0,0,0,1.44-.14c.83-.22.93-1,1-3.7l.29-18.12c0-.61.21-1,.54-1s.83.47,1.37,1,5.14,5.25,9.74,9.74c2.16,2.12,6.36,6.43,6.83,6.87h.14l-.32-13.59c0-1.87-.32-2.41-1.08-2.7a5.31,5.31,0,0,0-1.65-.18c-.4,0-.5-.14-.5-.32s.32-.29.79-.29c1.65,0,3.34.07,4,.07.36,0,1.55-.07,3.09-.07.43,0,.72,0,.72.29s-.18.32-.54.32a3.22,3.22,0,0,0-1,.11c-.86.25-1.11.79-1.15,2.52l-.36,19.27c0,.68-.25,1-.5,1a1.88,1.88,0,0,1-1.29-.65c-2-1.83-5.93-5.61-9.24-8.81s-6.79-7-7.41-7.55h-.11Z"/><path class="cls-5" d="M547.47,681.79a.51.51,0,0,1-.5-.5c0-.29.36-.61.72-.93,5-4.42,12.19-10,12.19-17.62,0-5.68-3.13-6.83-4.92-6.83a5.1,5.1,0,0,0-3.81,1.29,5.82,5.82,0,0,0-1.51,3.45c0,.36-.11.68-.47.68-.18,0-.29-.25-.32-.68s-.22-3.31-.22-4.35c0-.32,0-.47.43-.72a13.59,13.59,0,0,1,6.51-1.37c6.33,0,9,3.45,9,7.66,0,7-7.73,13-12.37,16.75-.18.14-.11.25.07.25h2.44c.61,0,4.85,0,6.18-.22,2.48-.29,3.67-1.51,4.1-3.2.11-.43.21-.58.43-.58s.29.32.29.68a40.69,40.69,0,0,1-1,5.14c-.29,1-.86,1.08-3.13,1.08Z"/><path class="cls-5" d="M569.44,666.37a2.14,2.14,0,0,1,2.19-2.19,2,2,0,0,1,2.19,2.09,2.21,2.21,0,0,1-2.23,2.3A2.12,2.12,0,0,1,569.44,666.37Zm0,12.15a2.16,2.16,0,0,1,2.19-2.19,2.07,2.07,0,0,1,2.19,2.09,2.19,2.19,0,0,1-2.23,2.3A2.1,2.1,0,0,1,569.44,678.52Z"/><path class="cls-5" d="M578.82,681.54a1,1,0,0,1-.61-1,34.13,34.13,0,0,1,.25-4.49c.07-.43.18-.68.4-.68s.32.21.32.5c0,2.3,1.76,4.78,5.39,4.78s6.51-1.87,6.51-6.15c0-4.82-4.31-6.51-6.08-6.83-.93-.18-1.15-.32-1.15-.61s.25-.43.65-.5c1.62-.32,5.57-2,5.57-6.18a4.5,4.5,0,0,0-4.78-4.42c-2.84,0-5,1.69-5,3.81,0,.43-.14.54-.32.54s-.25-.11-.29-.5a35.72,35.72,0,0,1-.25-3.59c0-.32,0-.47.5-.68a15.6,15.6,0,0,1,6.36-1.29c6.9,0,8.16,3.63,8.16,5.32,0,3.52-3.81,6-5.25,6.47v.07c2.66.61,6.4,2.73,6.4,7.08,0,5-4.35,9.24-11.36,9.24A13.21,13.21,0,0,1,578.82,681.54Z"/><path class="cls-2" d="M331.28,572.15h.18c1.22-1.33,6.47-6.69,7.51-7.91s1.8-2.08,1.8-2.7c0-.4-.14-.65-.5-.72s-.47-.14-.47-.36.18-.32.58-.32c.75,0,2.73.11,3.7.11s3.09-.11,4.21-.11c.36,0,.61.07.61.32s-.18.32-.54.32a7,7,0,0,0-2.08.4,11.5,11.5,0,0,0-3.88,2.7c-1.11,1.08-6.54,6.47-7.76,7.76,1.29,1.69,8.34,9.28,9.74,10.61,1.58,1.51,3.2,3.13,5.14,3.88a6.26,6.26,0,0,0,2.23.54c.25,0,.47.07.47.29s-.18.36-.86.36h-3.13c-1.08,0-1.73,0-2.48-.07-1.94-.18-2.91-1-4.46-2.34s-8.66-9.71-9.42-10.75l-.4-.54h-.18v3.27c0,3.31,0,6.15.11,7.69.07,1,.4,1.8,1.29,1.94a15.28,15.28,0,0,0,1.76.14c.29,0,.47.11.47.29s-.29.36-.68.36c-2,0-4.28-.11-5.18-.11s-3.09.11-4.53.11c-.47,0-.72-.11-.72-.36s.14-.29.58-.29a5.91,5.91,0,0,0,1.29-.14c.72-.14.9-.94,1-2,.18-1.51.18-4.35.18-7.66v-6.33c0-5.46,0-6.47-.07-7.62s-.36-1.8-1.55-2a7.46,7.46,0,0,0-1.4-.11c-.4,0-.61-.07-.61-.32s.25-.32.79-.32c1.91,0,4.17.11,5,.11s3.13-.11,4.35-.11c.5,0,.75.07.75.32s-.22.32-.5.32a5.4,5.4,0,0,0-1,.11c-1,.18-1.26.79-1.33,2s-.07,2.16-.07,7.62Z"/><path class="cls-2" d="M355.77,583.15c.07,2.37.47,3.09,1.08,3.31a5.37,5.37,0,0,0,1.65.22c.36,0,.54.14.54.32s-.29.32-.72.32c-2,0-3.52-.11-4.1-.11-.29,0-1.8.11-3.42.11-.43,0-.72,0-.72-.32s.22-.32.5-.32a6.53,6.53,0,0,0,1.44-.14c.83-.22.93-1,1-3.7l.29-18.12c0-.61.21-1,.54-1s.83.47,1.37,1,5.14,5.25,9.74,9.74c2.16,2.12,6.36,6.43,6.83,6.87h.14l-.32-13.59c0-1.87-.32-2.41-1.08-2.7a5.31,5.31,0,0,0-1.65-.18c-.4,0-.5-.14-.5-.32s.32-.29.79-.29c1.65,0,3.34.07,4,.07.36,0,1.55-.07,3.09-.07.43,0,.72,0,.72.29s-.18.32-.54.32a3.22,3.22,0,0,0-1,.11c-.86.25-1.11.79-1.15,2.52L374,586.71c0,.68-.25,1-.5,1a1.88,1.88,0,0,1-1.29-.65c-2-1.83-5.93-5.61-9.24-8.81s-6.79-7-7.41-7.55h-.11Z"/><path class="cls-2" d="M380.22,575.75c0-5.21,3.67-12,13.27-12,8,0,12.94,4.42,12.94,11.43s-5.1,12.51-13.26,12.51C384,587.72,380.22,581.17,380.22,575.75Zm21.5.58c0-6.76-4.06-10.93-9.17-10.93-3.52,0-7.66,1.87-7.66,9.42,0,6.29,3.59,11.25,9.56,11.25C396.68,586.06,401.71,585,401.71,576.32Z"/><path class="cls-2" d="M410.49,567.19c-.4-1.11-.65-1.83-1.11-2.12a2.58,2.58,0,0,0-1.22-.25c-.32,0-.5-.11-.5-.32s.25-.29.72-.29c1.62,0,3.38.07,3.67.07s1.83-.07,3.67-.07c.47,0,.68.07.68.29s-.25.32-.58.32a2.05,2.05,0,0,0-.79.14c-.29.11-.32.29-.32.61a17.57,17.57,0,0,0,.68,2.8c.54,2,3.42,11.25,3.88,12.65h.11l6-15.64c.32-.86.65-1.11.93-1.11s.65.47,1,1.44l6.33,15.1h.11c.61-1.76,3-9.81,4.13-13.37a6.57,6.57,0,0,0,.32-1.76c0-.5-.29-.86-1.55-.86-.29,0-.54-.14-.54-.32s.25-.29.75-.29c1.65,0,3.09.07,3.38.07s1.58-.07,2.62-.07c.36,0,.58.07.58.25s-.14.36-.43.36A4.14,4.14,0,0,0,442,565c-.75.29-1.11,1.44-1.76,3.2-1.47,3.85-4.71,13.55-6.25,18.12-.36,1.08-.54,1.44-1,1.44s-.65-.36-1.11-1.47l-6.44-15.1h-.07c-.54,1.29-4.78,12.15-6.08,15-.58,1.26-.75,1.62-1.22,1.62s-.58-.32-.86-1.11Z"/><path class="cls-2" d="M452,578.44c0,3.92,0,5.86.68,6.43s1.76.65,4.21.65c1.69,0,2.91,0,3.7-.86a3.68,3.68,0,0,0,.79-1.83c0-.29.11-.47.36-.47s.29.32.29.68a23.24,23.24,0,0,1-.47,3.52c-.22.68-.36.83-2,.83-2.27,0-4.1,0-5.68-.11s-2.91-.07-4.21-.07c-.36,0-1,0-1.8,0s-1.55.07-2.19.07c-.4,0-.61-.11-.61-.32s.11-.32.5-.32a4.64,4.64,0,0,0,1.12-.11c.65-.14.83-.72.93-1.62.14-1.29.14-3.7.14-6.51V573c0-4.64,0-5.5,0-6.47s-.36-1.37-1.37-1.65a4.24,4.24,0,0,0-1-.11q-.54,0-.54-.32c0-.21.21-.29.68-.29,1.47,0,3.49.07,4.35.07s3.34-.07,4.57-.07c.47,0,.68.07.68.29s-.18.32-.58.32a7.08,7.08,0,0,0-1.22.11c-.86.14-1.11.58-1.19,1.65S452,568.41,452,573Z"/><path class="cls-2" d="M467.59,573c0-4.64,0-5.5,0-6.47s-.36-1.37-1.37-1.65a5.87,5.87,0,0,0-1.26-.11c-.32,0-.54-.11-.54-.32s.25-.29.72-.29c1.65,0,3.67.07,4.57.07s8,0,8.63,0,1.08-.14,1.33-.18a3.65,3.65,0,0,1,.5-.14c.18,0,.21.14.21.29a13.51,13.51,0,0,0-.25,2c0,.32-.11,1.65-.18,2,0,.14-.11.5-.36.5s-.25-.14-.25-.4a2.87,2.87,0,0,0-.22-1.11c-.25-.54-.5-1-2.08-1.11-.54-.07-4.31-.14-5-.14-.14,0-.22.11-.22.29v7.55c0,.18,0,.32.22.32.72,0,4.82,0,5.54-.07a2.49,2.49,0,0,0,1.51-.47c.25-.22.36-.4.5-.4s.25.14.25.32-.07.68-.25,2.23c-.07.61-.14,1.83-.14,2s0,.68-.32.68-.29-.11-.29-.25c0-.32,0-.72-.11-1.11-.18-.61-.58-1.08-1.76-1.19-.58-.07-4.17-.14-5-.14-.14,0-.18.14-.18.32v2.44c0,1,0,3.63,0,4.53.07,2.08,1,2.55,4.28,2.55a8.54,8.54,0,0,0,3-.4c.79-.36,1.15-1,1.37-2.26.07-.32.14-.47.36-.47s.29.39.29.72a20.69,20.69,0,0,1-.43,3.38c-.22.79-.5.79-1.69.79-2.37,0-4.28,0-5.82-.11s-2.73-.07-3.67-.07c-.36,0-1,0-1.8,0s-1.54.07-2.19.07c-.4,0-.61-.11-.61-.32s.11-.32.5-.32a4.64,4.64,0,0,0,1.12-.11c.65-.14.83-.72.93-1.62.14-1.29.14-3.7.14-6.51Z"/><path class="cls-2" d="M487.58,573c0-4.64,0-5.5,0-6.47s-.36-1.37-1.37-1.65a5.87,5.87,0,0,0-1.26-.11c-.32,0-.54-.11-.54-.32s.25-.29.72-.29c1.65,0,3.67.07,4.57.07s3.24-.07,5.14-.07c4,0,9.28,0,12.73,3.49a10.7,10.7,0,0,1,3,7.76,11.85,11.85,0,0,1-3.45,8.52c-1.44,1.44-4.78,3.59-10.6,3.59-1.15,0-2.52-.11-3.78-.18s-2.41-.18-3.2-.18c-.36,0-1,0-1.8,0s-1.55.07-2.19.07c-.4,0-.61-.11-.61-.32s.11-.32.5-.32a4.64,4.64,0,0,0,1.12-.11c.65-.14.83-.72.93-1.62.14-1.29.14-3.7.14-6.51Zm4.24,3.38c0,3.24,0,5.57.07,6.18a5.57,5.57,0,0,0,.36,2.16c.4.58,1.65,1.22,4.13,1.22,2.88,0,5-.5,6.9-2.08s2.7-4.42,2.7-7.58c0-3.88-1.55-6.4-2.95-7.62a12.76,12.76,0,0,0-8.84-2.91,6.68,6.68,0,0,0-1.94.22.54.54,0,0,0-.4.61c0,1,0,3.56,0,6Z"/><path class="cls-2" d="M536.76,585.27c0,.83,0,.86-.4,1.08a19,19,0,0,1-7.73,1.37c-7.77,0-14.63-3.52-14.63-12a11.31,11.31,0,0,1,5.54-10,15.84,15.84,0,0,1,8.52-2,35.93,35.93,0,0,1,5.61.5c.65.11,1.76.29,2.52.32.36,0,.43.14.43.36a41.44,41.44,0,0,0-.22,5c0,.47-.18.68-.43.68s-.29-.14-.32-.4a4.07,4.07,0,0,0-1.08-2.52,9.8,9.8,0,0,0-6.87-2.34,8.87,8.87,0,0,0-6.11,1.8c-1.76,1.44-2.91,3.7-2.91,7.44,0,6.58,4.24,11.36,11,11.36a5.18,5.18,0,0,0,2.23-.32,1,1,0,0,0,.61-1.08v-2.8c0-1.51,0-2.66,0-3.59s-.36-1.37-1.37-1.65a5.67,5.67,0,0,0-1.22-.11c-.29,0-.5-.14-.5-.32s.25-.29.68-.29c1.65,0,3.92.07,4.85.07s2.66-.07,3.7-.07c.43,0,.65,0,.65.29a.37.37,0,0,1-.4.32,4.29,4.29,0,0,0-.86.11c-.86.14-1.19.57-1.22,1.65s0,2.16,0,3.67Z"/><path class="cls-2" d="M545.61,573c0-4.64,0-5.5,0-6.47s-.36-1.37-1.37-1.65a5.87,5.87,0,0,0-1.26-.11c-.32,0-.54-.11-.54-.32s.25-.29.72-.29c1.65,0,3.67.07,4.57.07s8,0,8.63,0,1.08-.14,1.33-.18a3.65,3.65,0,0,1,.5-.14c.18,0,.21.14.21.29a13.51,13.51,0,0,0-.25,2c0,.32-.11,1.65-.18,2,0,.14-.11.5-.36.5s-.25-.14-.25-.4a2.87,2.87,0,0,0-.22-1.11c-.25-.54-.5-1-2.08-1.11-.54-.07-4.31-.14-5-.14-.14,0-.22.11-.22.29v7.55c0,.18,0,.32.22.32.72,0,4.82,0,5.54-.07a2.49,2.49,0,0,0,1.51-.47c.25-.22.36-.4.5-.4s.25.14.25.32-.07.68-.25,2.23c-.07.61-.14,1.83-.14,2s0,.68-.32.68-.29-.11-.29-.25c0-.32,0-.72-.11-1.11-.18-.61-.58-1.08-1.76-1.19-.58-.07-4.17-.14-5-.14-.14,0-.18.14-.18.32v2.44c0,1,0,3.63,0,4.53.07,2.08,1,2.55,4.28,2.55a8.54,8.54,0,0,0,3-.4c.79-.36,1.15-1,1.37-2.26.07-.32.14-.47.36-.47s.29.39.29.72a20.69,20.69,0,0,1-.43,3.38c-.22.79-.5.79-1.69.79-2.37,0-4.28,0-5.82-.11s-2.73-.07-3.67-.07c-.36,0-1,0-1.8,0s-1.55.07-2.19.07c-.4,0-.61-.11-.61-.32s.11-.32.5-.32a4.64,4.64,0,0,0,1.12-.11c.65-.14.83-.72.93-1.62.14-1.29.14-3.7.14-6.51Z"/><path class="cls-2" d="M578.47,579.59c-.18,0-.22,0-.29.22l-1.69,4.13a5.54,5.54,0,0,0-.47,1.87c0,.54.29.86,1.26.86h.47c.4,0,.47.14.47.32s-.18.32-.5.32c-1,0-2.52-.11-3.52-.11-.32,0-2,.11-3.67.11-.4,0-.58-.07-.58-.32a.31.31,0,0,1,.36-.32c.29,0,.65,0,.94,0,1.44-.22,2-1.15,2.62-2.7l8.27-19.09c.36-.86.61-1.22.93-1.22s.61.29.93,1c.75,1.69,6,14.06,8.05,18.69,1.22,2.77,2.12,3.16,2.7,3.27a7.58,7.58,0,0,0,1.19.11q.43,0,.43.32c0,.25-.18.32-1.37.32s-3.42,0-6.08-.07c-.58,0-.93,0-.93-.25s.07-.29.4-.32a.48.48,0,0,0,.29-.68l-2.45-6.18a.3.3,0,0,0-.32-.22Zm6.76-1.69c.14,0,.18-.07.14-.18l-3-7.66c0-.11-.07-.29-.14-.29s-.14.18-.18.29L579,577.69c-.07.14,0,.22.11.22Z"/><path class="cls-2" d="M601.81,583.15c.07,2.37.47,3.09,1.08,3.31a5.37,5.37,0,0,0,1.65.22c.36,0,.54.14.54.32s-.29.32-.72.32c-2,0-3.52-.11-4.1-.11-.29,0-1.8.11-3.42.11-.43,0-.72,0-.72-.32s.22-.32.5-.32a6.53,6.53,0,0,0,1.44-.14c.83-.22.93-1,1-3.7l.29-18.12c0-.61.22-1,.54-1s.83.47,1.37,1,5.14,5.25,9.74,9.74c2.16,2.12,6.36,6.43,6.83,6.87h.14l-.32-13.59c0-1.87-.32-2.41-1.08-2.7a5.31,5.31,0,0,0-1.65-.18c-.39,0-.5-.14-.5-.32s.32-.29.79-.29c1.65,0,3.34.07,4,.07.36,0,1.55-.07,3.09-.07.43,0,.72,0,.72.29s-.18.32-.54.32a3.22,3.22,0,0,0-1,.11c-.86.25-1.11.79-1.15,2.52L620,586.71c0,.68-.25,1-.5,1a1.88,1.88,0,0,1-1.29-.65c-2-1.83-5.93-5.61-9.24-8.81s-6.79-7-7.41-7.55h-.11Z"/><path class="cls-2" d="M630.07,573c0-4.64,0-5.5,0-6.47s-.36-1.37-1.37-1.65a5.87,5.87,0,0,0-1.26-.11c-.32,0-.54-.11-.54-.32s.25-.29.72-.29c1.65,0,3.67.07,4.57.07s3.24-.07,5.14-.07c4,0,9.28,0,12.73,3.49a10.7,10.7,0,0,1,3,7.76,11.85,11.85,0,0,1-3.45,8.52c-1.44,1.44-4.78,3.59-10.6,3.59-1.15,0-2.52-.11-3.78-.18s-2.41-.18-3.2-.18c-.36,0-1,0-1.8,0s-1.54.07-2.19.07c-.4,0-.61-.11-.61-.32s.11-.32.5-.32a4.64,4.64,0,0,0,1.12-.11c.65-.14.83-.72.93-1.62.14-1.29.14-3.7.14-6.51Zm4.24,3.38c0,3.24,0,5.57.07,6.18a5.56,5.56,0,0,0,.36,2.16c.4.58,1.65,1.22,4.13,1.22,2.88,0,5-.5,6.9-2.08s2.7-4.42,2.7-7.58c0-3.88-1.55-6.4-2.95-7.62a12.75,12.75,0,0,0-8.84-2.91,6.68,6.68,0,0,0-1.94.22.54.54,0,0,0-.4.61c0,1,0,3.56,0,6Z"/><path class="cls-2" d="M279.16,606.69c0-6.15,4.06-14.09,14.85-14.09,9,0,14.52,5.21,14.52,13.45s-5.75,14.74-14.88,14.74C283.33,620.78,279.16,613.05,279.16,606.69Zm24.34.68c0-8.05-4.64-13-10.53-13-4.13,0-8.84,2.3-8.84,11.25,0,7.48,4.13,13.41,11,13.41C297.68,619,303.5,617.76,303.5,607.37Z"/><path class="cls-2" d="M314.26,606c0-4.64,0-5.5,0-6.47s-.36-1.37-1.37-1.65a5.87,5.87,0,0,0-1.26-.11c-.32,0-.54-.11-.54-.32s.25-.29.72-.29c1.65,0,3.67.07,4.28.07,1.58,0,3.67-.07,4.75-.07,5.72,0,6.72,2.95,6.72,4.57,0,2.37-1.76,4.21-3.56,5.36,2.59.83,5.82,3,5.82,6.62,0,3.27-2.59,6.65-8.41,6.65-.36,0-1.44,0-2.52-.11s-2.19-.07-2.7-.07-1,0-1.8,0-1.54.07-2.19.07c-.4,0-.61-.11-.61-.32s.11-.32.5-.32a4.64,4.64,0,0,0,1.12-.11c.65-.14.83-.72.93-1.62.14-1.29.14-3.7.14-6.51Zm4.1.5c0,.25.11.29.22.32a6.79,6.79,0,0,0,1.47.11,4.11,4.11,0,0,0,2.48-.54,4,4,0,0,0,1.44-3.24c0-2-1.22-4.6-4-4.6a8.11,8.11,0,0,0-1.37.07c-.22,0-.29.18-.29.5Zm0,9c0,2,.11,2.63,1.11,3a5.84,5.84,0,0,0,2.26.36c1.69,0,3.88-.93,3.88-4.31a6.69,6.69,0,0,0-3-5.43,4.49,4.49,0,0,0-2.73-.79h-1.37c-.11,0-.18,0-.18.22Z"/><path class="cls-2" d="M335.83,606c0-4.64,0-5.5,0-6.47s-.36-1.37-1.37-1.65a5.87,5.87,0,0,0-1.26-.11c-.32,0-.54-.11-.54-.32s.25-.29.72-.29c1.65,0,3.67.07,4.57.07s8,0,8.63,0,1.08-.14,1.33-.18a3.65,3.65,0,0,1,.5-.14c.18,0,.21.14.21.29a13.51,13.51,0,0,0-.25,2c0,.32-.11,1.65-.18,2,0,.14-.11.5-.36.5s-.25-.14-.25-.4a2.87,2.87,0,0,0-.22-1.11c-.25-.54-.5-1-2.08-1.11-.54-.07-4.31-.14-5-.14-.14,0-.22.11-.22.29v7.55c0,.18,0,.32.22.32.72,0,4.82,0,5.54-.07a2.49,2.49,0,0,0,1.51-.47c.25-.22.36-.4.5-.4s.25.14.25.32-.07.68-.25,2.23c-.07.61-.14,1.83-.14,2s0,.68-.32.68-.29-.11-.29-.25c0-.32,0-.72-.11-1.11-.18-.61-.58-1.08-1.76-1.19-.58-.07-4.17-.14-5-.14-.14,0-.18.14-.18.32v2.44c0,1,0,3.63,0,4.53.07,2.08,1,2.55,4.28,2.55a8.54,8.54,0,0,0,3-.4c.79-.36,1.15-1,1.37-2.26.07-.32.14-.47.36-.47s.29.39.29.72a20.69,20.69,0,0,1-.43,3.38c-.22.79-.5.79-1.69.79-2.37,0-4.28,0-5.82-.11s-2.73-.07-3.67-.07c-.36,0-1,0-1.8,0s-1.55.07-2.19.07c-.4,0-.61-.11-.61-.32s.11-.32.5-.32a4.64,4.64,0,0,0,1.12-.11c.65-.14.83-.72.93-1.62.14-1.29.14-3.7.14-6.51Z"/><path class="cls-2" d="M355.82,606c0-4.64,0-5.5,0-6.47s-.36-1.37-1.37-1.65a5.87,5.87,0,0,0-1.26-.11c-.32,0-.54-.11-.54-.32s.25-.29.72-.29c1.65,0,3.67.07,4.57.07s3.24-.07,5.14-.07c4,0,9.28,0,12.73,3.49a10.7,10.7,0,0,1,3,7.76,11.85,11.85,0,0,1-3.45,8.52c-1.44,1.44-4.78,3.59-10.6,3.59-1.15,0-2.52-.11-3.78-.18s-2.41-.18-3.2-.18c-.36,0-1,0-1.8,0s-1.54.07-2.19.07c-.4,0-.61-.11-.61-.32s.11-.32.5-.32a4.64,4.64,0,0,0,1.12-.11c.65-.14.83-.72.93-1.62.14-1.29.14-3.7.14-6.51Zm4.24,3.38c0,3.24,0,5.57.07,6.18a5.56,5.56,0,0,0,.36,2.16c.4.58,1.65,1.22,4.13,1.22,2.88,0,5-.5,6.9-2.08s2.7-4.42,2.7-7.58c0-3.88-1.55-6.4-2.95-7.62a12.75,12.75,0,0,0-8.84-2.91,6.68,6.68,0,0,0-1.94.22.54.54,0,0,0-.4.61c0,1,0,3.56,0,6Z"/><path class="cls-2" d="M385.34,606c0-4.64,0-5.5,0-6.47s-.4-1.4-1.08-1.62a4.05,4.05,0,0,0-1.15-.14c-.32,0-.5-.07-.5-.36s.25-.25.75-.25c1.19,0,3.34.07,4.24.07s2.84-.07,4.06-.07c.4,0,.65.07.65.25s-.18.36-.5.36a4.43,4.43,0,0,0-.93.11c-.86.14-1.11.58-1.19,1.65s-.07,1.83-.07,6.47v5.39c0,2.95,0,5.39.14,6.69.11.83.32,1.29,1.26,1.44a11.76,11.76,0,0,0,1.62.11c.36,0,.5.18.5.32s-.25.32-.61.32c-2.08,0-4.24-.11-5.11-.11s-2.88.11-4.13.11c-.4,0-.61-.11-.61-.32s.11-.32.5-.32a4.64,4.64,0,0,0,1.12-.11c.65-.14.83-.58.93-1.47.14-1.26.14-3.7.14-6.65Z"/><path class="cls-2" d="M400,606c0-4.64,0-5.5,0-6.47s-.36-1.37-1.37-1.65a5.87,5.87,0,0,0-1.26-.11c-.32,0-.54-.11-.54-.32s.25-.29.72-.29c1.65,0,3.67.07,4.57.07s8,0,8.63,0,1.08-.14,1.33-.18a3.65,3.65,0,0,1,.5-.14c.18,0,.21.14.21.29a13.51,13.51,0,0,0-.25,2c0,.32-.11,1.65-.18,2,0,.14-.11.5-.36.5s-.25-.14-.25-.4a2.87,2.87,0,0,0-.22-1.11c-.25-.54-.5-1-2.08-1.11-.54-.07-4.31-.14-5-.14-.14,0-.22.11-.22.29v7.55c0,.18,0,.32.22.32.72,0,4.82,0,5.54-.07a2.49,2.49,0,0,0,1.51-.47c.25-.22.36-.4.5-.4s.25.14.25.32-.07.68-.25,2.23c-.07.61-.14,1.83-.14,2s0,.68-.32.68-.29-.11-.29-.25c0-.32,0-.72-.11-1.11-.18-.61-.58-1.08-1.76-1.19-.58-.07-4.17-.14-5-.14-.14,0-.18.14-.18.32v2.44c0,1,0,3.63,0,4.53.07,2.08,1,2.55,4.28,2.55a8.54,8.54,0,0,0,3-.4c.79-.36,1.15-1,1.37-2.26.07-.32.14-.47.36-.47s.29.39.29.72a20.69,20.69,0,0,1-.43,3.38c-.22.79-.5.79-1.69.79-2.37,0-4.28,0-5.82-.11s-2.73-.07-3.67-.07c-.36,0-1,0-1.8,0s-1.55.07-2.19.07c-.4,0-.61-.11-.61-.32s.11-.32.5-.32a4.64,4.64,0,0,0,1.12-.11c.65-.14.83-.72.93-1.62.14-1.29.14-3.7.14-6.51Z"/><path class="cls-2" d="M421.94,616.11c.07,2.37.47,3.09,1.08,3.31a5.37,5.37,0,0,0,1.65.22c.36,0,.54.14.54.32s-.29.32-.72.32c-2,0-3.52-.11-4.1-.11-.29,0-1.8.11-3.42.11-.43,0-.72,0-.72-.32s.22-.32.5-.32a6.53,6.53,0,0,0,1.44-.14c.83-.22.93-1,1-3.7l.29-18.12c0-.61.22-1,.54-1s.83.47,1.37,1,5.14,5.25,9.74,9.74c2.16,2.12,6.36,6.43,6.83,6.87h.14l-.32-13.59c0-1.87-.32-2.41-1.08-2.7a5.31,5.31,0,0,0-1.65-.18c-.39,0-.5-.14-.5-.32s.32-.29.79-.29c1.65,0,3.34.07,4,.07.36,0,1.55-.07,3.09-.07.43,0,.72,0,.72.29s-.18.32-.54.32a3.22,3.22,0,0,0-1,.11c-.86.25-1.11.79-1.15,2.52l-.36,19.27c0,.68-.25,1-.5,1a1.88,1.88,0,0,1-1.29-.65c-2-1.83-5.93-5.61-9.24-8.81s-6.79-7-7.41-7.55h-.11Z"/><path class="cls-2" d="M450.35,617.37a11.8,11.8,0,0,1-.25-17.4c2.3-2,5.32-3.24,10-3.24a32.46,32.46,0,0,1,4.6.32c1.19.18,2.23.39,3.16.5.36,0,.47.18.47.36s-.07.61-.14,1.69-.07,2.7-.11,3.31c0,.43-.14.75-.43.75s-.32-.25-.32-.65a4.31,4.31,0,0,0-1.22-2.84c-1.08-1-3.2-1.8-6.11-1.8s-4.53.5-6,1.73c-2.34,2-2.91,5-2.91,7.94,0,7.26,5.61,10.71,9.85,10.71,2.8,0,4.35-.22,5.61-1.62a4.94,4.94,0,0,0,1.08-2c.07-.47.14-.61.4-.61s.36.29.36.54a27.08,27.08,0,0,1-.68,4.06,1.07,1.07,0,0,1-.83.9,18.57,18.57,0,0,1-5.72.68C456.89,620.67,453.22,619.78,450.35,617.37Z"/><path class="cls-2" d="M475.19,606c0-4.64,0-5.5,0-6.47s-.36-1.37-1.37-1.65a5.87,5.87,0,0,0-1.26-.11c-.32,0-.54-.11-.54-.32s.25-.29.72-.29c1.65,0,3.67.07,4.57.07s8,0,8.63,0,1.08-.14,1.33-.18a3.65,3.65,0,0,1,.5-.14c.18,0,.21.14.21.29a13.51,13.51,0,0,0-.25,2c0,.32-.11,1.65-.18,2,0,.14-.11.5-.36.5s-.25-.14-.25-.4a2.87,2.87,0,0,0-.22-1.11c-.25-.54-.5-1-2.08-1.11-.54-.07-4.31-.14-5-.14-.14,0-.22.11-.22.29v7.55c0,.18,0,.32.22.32.72,0,4.82,0,5.54-.07a2.49,2.49,0,0,0,1.51-.47c.25-.22.36-.4.5-.4s.25.14.25.32-.07.68-.25,2.23c-.07.61-.14,1.83-.14,2s0,.68-.32.68-.29-.11-.29-.25c0-.32,0-.72-.11-1.11-.18-.61-.58-1.08-1.76-1.19-.58-.07-4.17-.14-5-.14-.14,0-.18.14-.18.32v2.44c0,1,0,3.63,0,4.53.07,2.08,1,2.55,4.28,2.55a8.54,8.54,0,0,0,3-.4c.79-.36,1.15-1,1.37-2.26.07-.32.14-.47.36-.47s.29.39.29.72a20.69,20.69,0,0,1-.43,3.38c-.22.79-.5.79-1.69.79-2.37,0-4.28,0-5.82-.11s-2.73-.07-3.67-.07c-.36,0-1,0-1.8,0s-1.54.07-2.19.07c-.4,0-.61-.11-.61-.32s.11-.32.5-.32a4.64,4.64,0,0,0,1.12-.11c.65-.14.83-.72.93-1.62.14-1.29.14-3.7.14-6.51Z"/><path class="cls-2" d="M506.69,606c0-4.64,0-5.5,0-6.47s-.4-1.4-1.08-1.62a4.05,4.05,0,0,0-1.15-.14c-.32,0-.5-.07-.5-.36s.25-.25.75-.25c1.19,0,3.34.07,4.24.07s2.84-.07,4.06-.07c.4,0,.65.07.65.25s-.18.36-.5.36a4.43,4.43,0,0,0-.93.11c-.86.14-1.11.58-1.19,1.65s-.07,1.83-.07,6.47v5.39c0,2.95,0,5.39.14,6.69.11.83.32,1.29,1.26,1.44a11.76,11.76,0,0,0,1.62.11c.36,0,.5.18.5.32s-.25.32-.61.32c-2.08,0-4.24-.11-5.11-.11s-2.88.11-4.13.11c-.4,0-.61-.11-.61-.32s.11-.32.5-.32a4.64,4.64,0,0,0,1.12-.11c.65-.14.83-.58.93-1.47.14-1.26.14-3.7.14-6.65Z"/><path class="cls-2" d="M523.3,616.11c.07,2.37.47,3.09,1.08,3.31a5.37,5.37,0,0,0,1.65.22c.36,0,.54.14.54.32s-.29.32-.72.32c-2,0-3.52-.11-4.1-.11-.29,0-1.8.11-3.42.11-.43,0-.72,0-.72-.32s.22-.32.5-.32a6.53,6.53,0,0,0,1.44-.14c.83-.22.93-1,1-3.7l.29-18.12c0-.61.21-1,.54-1s.83.47,1.37,1,5.14,5.25,9.74,9.74c2.16,2.12,6.36,6.43,6.83,6.87h.14l-.32-13.59c0-1.87-.32-2.41-1.08-2.7a5.31,5.31,0,0,0-1.65-.18c-.4,0-.5-.14-.5-.32s.32-.29.79-.29c1.65,0,3.34.07,4,.07.36,0,1.55-.07,3.09-.07.43,0,.72,0,.72.29s-.18.32-.54.32a3.22,3.22,0,0,0-1,.11c-.86.25-1.11.79-1.15,2.52l-.36,19.27c0,.68-.25,1-.5,1a1.88,1.88,0,0,1-1.29-.65c-2-1.83-5.93-5.61-9.24-8.81s-6.79-7-7.41-7.55h-.11Z"/><path class="cls-2" d="M563.6,616.86a14.24,14.24,0,0,1-.25-20.46c2.59-2.37,6-3.81,11.36-3.81a35.51,35.51,0,0,1,5.21.36c1.37.18,2.52.5,3.6.61.4,0,.54.22.54.43s-.11.72-.18,2,0,3.16-.11,3.88c0,.54-.11.83-.43.83s-.36-.29-.36-.79a5.13,5.13,0,0,0-1.4-3.31c-1.19-1.26-4-2.23-7.3-2.23-3.13,0-5.18.79-6.76,2.23-2.62,2.41-3.31,5.82-3.31,9.31,0,8.56,6.51,12.8,11.32,12.8,3.2,0,5.14-.36,6.58-2a6,6,0,0,0,1.22-2.37c.11-.58.18-.72.47-.72s.32.25.32.54a34.06,34.06,0,0,1-.79,4.78,1.27,1.27,0,0,1-.93,1,20.82,20.82,0,0,1-6.47.83C571,620.78,566.87,619.7,563.6,616.86Z"/><path class="cls-2" d="M607.5,607.12c.07,0,.18,0,.18-.22v-.65c0-4.64,0-5.75-.07-6.72s-.36-1.37-1.37-1.65a5.74,5.74,0,0,0-1.22-.11q-.54,0-.54-.32c0-.21.22-.29.68-.29,1.69,0,3.92.07,4.75.07s2.84-.07,4.06-.07c.47,0,.68.07.68.29s-.22.32-.58.32a5.36,5.36,0,0,0-.93.11c-.83.14-1.08.58-1.15,1.65s-.07,1.83-.07,6.47v5.39c0,2.8,0,5.21.14,6.54.11.86.29,1.44,1.26,1.58a11.4,11.4,0,0,0,1.62.11c.32,0,.5.18.5.32s-.25.32-.65.32c-2,0-4.13-.11-5-.11s-2.95.11-4.17.11c-.43,0-.68-.11-.68-.32s.14-.32.5-.32a4.75,4.75,0,0,0,1.15-.11c.65-.14.83-.72.93-1.62.14-1.29.14-3.63.14-6.44v-2.34a.19.19,0,0,0-.18-.18H595.57c-.11,0-.22,0-.22.18v2.34c0,2.8,0,5.14.18,6.47.11.86.29,1.44,1.22,1.58a11.76,11.76,0,0,0,1.62.11c.36,0,.5.18.5.32s-.25.32-.65.32c-2,0-4.24-.11-5.14-.11-.72,0-2.8.11-4.06.11-.4,0-.61-.11-.61-.32s.11-.32.5-.32a4.64,4.64,0,0,0,1.12-.11c.65-.14.83-.72.93-1.62.14-1.29.14-3.7.14-6.51V606c0-4.64,0-5.5,0-6.47s-.36-1.37-1.37-1.65a5.87,5.87,0,0,0-1.26-.11c-.32,0-.54-.11-.54-.32s.25-.29.68-.29c1.69,0,3.77.07,4.64.07s2.95-.07,4.21-.07c.43,0,.65.07.65.29s-.18.32-.58.32a4.68,4.68,0,0,0-.9.11c-.86.14-1.11.58-1.19,1.65s-.07,2.08-.07,6.72v.65a.19.19,0,0,0,.22.22Z"/><path class="cls-2" d="M622.28,606c0-4.64,0-5.5,0-6.47s-.36-1.37-1.37-1.65a5.87,5.87,0,0,0-1.26-.11c-.32,0-.54-.11-.54-.32s.25-.29.72-.29c1.65,0,3.67.07,4.31.07,1.08,0,4-.07,4.93-.07,2,0,4.31.18,6,1.29a5.34,5.34,0,0,1,2.23,4.21c0,2.27-1.29,4.28-4.39,6.76,2.8,3.45,5,6.22,6.94,8.13a5.93,5.93,0,0,0,3.38,2,2.94,2.94,0,0,0,.75.07.37.37,0,0,1,.4.32c0,.25-.22.32-.61.32h-3a6.86,6.86,0,0,1-3.45-.61c-1.37-.68-2.55-2.12-4.31-4.49-1.26-1.65-2.59-3.7-3-4.17a.73.73,0,0,0-.58-.22l-2.84-.07a.23.23,0,0,0-.25.25v.43c0,2.84,0,5.21.18,6.51.11.9.25,1.47,1.22,1.62a11.93,11.93,0,0,0,1.55.11.37.37,0,0,1,.4.32c0,.22-.25.32-.65.32-1.83,0-4.46-.11-4.92-.11s-2.62.11-3.88.11c-.4,0-.61-.11-.61-.32s.11-.32.5-.32a4.64,4.64,0,0,0,1.12-.11c.65-.14.83-.72.93-1.62.14-1.29.14-3.7.14-6.51Zm4,2.37c0,.32.07.43.29.54a8.68,8.68,0,0,0,2.41.29,3.18,3.18,0,0,0,2.23-.5,5.17,5.17,0,0,0,2-4.53c0-4.31-2.95-5.43-4.82-5.43a11.55,11.55,0,0,0-1.87.11c-.21.07-.29.18-.29.43Z"/><path class="cls-2" d="M646.95,606c0-4.64,0-5.5,0-6.47s-.4-1.4-1.08-1.62a4.05,4.05,0,0,0-1.15-.14c-.32,0-.5-.07-.5-.36s.25-.25.75-.25c1.19,0,3.34.07,4.24.07s2.84-.07,4.06-.07c.4,0,.65.07.65.25s-.18.36-.5.36a4.43,4.43,0,0,0-.93.11c-.86.14-1.11.58-1.19,1.65s-.07,1.83-.07,6.47v5.39c0,2.95,0,5.39.14,6.69.11.83.32,1.29,1.26,1.44a11.76,11.76,0,0,0,1.62.11c.36,0,.5.18.5.32s-.25.32-.61.32c-2.08,0-4.24-.11-5.11-.11s-2.88.11-4.13.11c-.4,0-.61-.11-.61-.32s.11-.32.5-.32a4.64,4.64,0,0,0,1.12-.11c.65-.14.83-.58.93-1.47.14-1.26.14-3.7.14-6.65Z"/><path class="cls-2" d="M659.86,619.88c-.5-.22-.61-.36-.61-1,0-1.65.14-3.56.18-4.06s.14-.79.4-.79.32.29.32.5a5.69,5.69,0,0,0,.29,1.58c.68,2.27,3.06,3,5,3,2.73,0,4.39-1.73,4.39-3.88,0-1.33-.32-2.66-3.13-4.31l-1.83-1.08c-3.74-2.19-5-4.24-5-6.94,0-3.74,3.59-6.15,8-6.15a18.76,18.76,0,0,1,4.49.5c.29.07.43.18.43.4,0,.4-.11,1.26-.11,3.67,0,.65-.14,1-.4,1s-.32-.18-.32-.54a3.46,3.46,0,0,0-.83-2,4.25,4.25,0,0,0-3.52-1.44c-2.26,0-4.31,1.19-4.31,3.27,0,1.37.5,2.44,3.34,4l1.29.72c4.17,2.3,5.46,4.64,5.46,7.41a6.53,6.53,0,0,1-3.16,5.72,9.23,9.23,0,0,1-5.29,1.26A13.46,13.46,0,0,1,659.86,619.88Z"/><path class="cls-2" d="M685.2,599l-4.71.11c-1.83,0-2.59.25-3.06.93a3.57,3.57,0,0,0-.54,1c-.07.25-.14.4-.36.4s-.29-.18-.29-.5c0-.5.61-3.45.68-3.7s.18-.58.36-.58.58.25,1.37.36a29.54,29.54,0,0,0,3.16.14h12.83a13.92,13.92,0,0,0,2.16-.14c.5-.07.76-.14.86-.14s.25.18.25.65c0,.65-.07,2.91-.07,3.7,0,.32-.11.5-.29.5s-.32-.14-.36-.61l0-.32c-.07-.79-.9-1.73-3.74-1.76l-4-.07V611.4c0,2.8,0,5.21.18,6.54.11.86.29,1.44,1.22,1.58a11.76,11.76,0,0,0,1.62.11c.36,0,.5.18.5.32s-.25.32-.61.32c-2.08,0-4.21-.11-5.11-.11-.72,0-2.88.11-4.13.11-.4,0-.61-.11-.61-.32s.11-.32.5-.32a4.44,4.44,0,0,0,1.12-.11c.65-.14.83-.72.93-1.62.14-1.29.14-3.7.14-6.51Z"/><path class="cls-10" d="M145.07,683.24V803.88a3015.05,3015.05,0,0,0,354.6,20.86,3015.07,3015.07,0,0,0,354.6-20.86V683.24a2939.8,2939.8,0,0,1-354.6,21.38A2939.9,2939.9,0,0,1,145.07,683.24Z"/><path class="cls-2" d="M186.49,717.77c.35-1.25.86-1.88,1.46-1.83s1,.48,1.8,2.52l16.45,43.62,24.43-40.22c.71-1.14,1.15-1.7,1.82-1.64s1.05.86,1.13,2.45L236,769.18c.22,4.79.76,7,2.94,7.92a15,15,0,0,0,4.57,1.2c.67.06,1.19.19,1.15.64s-1,.74-2,.64c-1.87-.18-12.2-1.32-15.17-1.84-1.71-.32-2.14-.58-2.09-1s.36-.57.9-.74.78-1.06.68-3.19l-1.36-33-.3,0-19.54,31.84c-2.06,3.36-2.5,4-3.18,3.93s-1.28-1.63-2.26-4c-1.47-3.62-6.28-15.65-7-17.83-.52-1.64-4.17-10.91-6.25-16.78l-.3,0-6.71,28.84a29.79,29.79,0,0,0-.56,3.5c-.14,1.42.77,2.19,2,2.61a14.48,14.48,0,0,0,3.11.68c.6.06,1.11.26,1.07.63-.07.67-.75.76-1.88.65-3.15-.3-6.5-.85-7.84-1s-5-.26-7.44-.49c-.75-.07-1.33-.28-1.27-1,0-.37.5-.48,1.25-.41a9.71,9.71,0,0,0,2.27,0c2.14-.25,3-3.11,3.64-5.62Z"/><path class="cls-2" d="M249.43,749.83c.73-9.68.94-11.48.94-13.51,0-2.26-.54-2.91-2.59-3.67a11.91,11.91,0,0,0-2.53-.42q-1.13-.08-1.08-.76c0-.45.5-.57,1.47-.49,3.53.26,7.94.75,9.89.89,1.65.12,6.09.31,8.49.48,1,.07,1.41.26,1.38.71s-.43.65-1.1.6a9.13,9.13,0,0,0-2,.08c-1.75.17-2.34,1-2.66,3.27-.3,2-.44,3.82-1.16,13.5l-.67,8.93c-.7,9.3.83,13,3.87,15.84a12.75,12.75,0,0,0,8.14,3.18,12.61,12.61,0,0,0,9.11-2.71c3.94-3.18,4.5-8.72,5-15.25l.6-8c.73-9.68.79-11.49.86-13.52,0-2.19-.46-2.9-2.52-3.66a11.41,11.41,0,0,0-2.38-.41q-1.12-.08-1.07-.76c0-.45.5-.57,1.4-.5,3.38.25,7.79.74,7.87.74.75.06,5.19.24,7.74.43.9.07,1.34.25,1.31.7s-.43.65-1.18.59a9.25,9.25,0,0,0-2,.08c-1.82.17-2.34,1-2.66,3.27-.23,2-.44,3.82-1.16,13.5l-.51,6.83c-.53,7.13-1.85,14.58-7.75,18.74-4.95,3.55-10,3.85-14.3,3.53-3.45-.26-10.27-.92-14.76-5.48-3.16-3.18-5.43-8.1-4.74-17.33Z"/><path class="cls-2" d="M303.45,753.72c.58-9.69.69-11.49.74-13.53,0-2.19-.58-2.9-2.65-3.63a12.26,12.26,0,0,0-2.62-.38c-.68,0-1.11-.29-1.09-.74s.56-.57,1.54-.51c3.46.21,7.65.61,9.53.72,2.1.13,16.75,1.08,18,1.08s2.27-.17,2.8-.21a7.64,7.64,0,0,1,1.07-.24c.38,0,.43.33.41.63a28.47,28.47,0,0,0-.77,4.1c-.12.67-.43,3.44-.63,4.18-.09.3-.29,1-.81,1s-.51-.33-.48-.86a6,6,0,0,0-.31-2.36c-.46-1.16-.93-2.09-4.22-2.59-1.12-.22-9-.84-10.35-.92-.3,0-.46.2-.49.57l-.95,15.78c0,.38,0,.68.41.7,1.5.09,10.07.61,11.58.54a5.22,5.22,0,0,0,3.21-.79c.55-.42.8-.78,1.1-.76a.61.61,0,0,1,.49.71c0,.38-.24,1.42-.81,4.63-.23,1.27-.53,3.81-.56,4.26s-.16,1.42-.76,1.39-.59-.26-.57-.56c0-.68,0-1.51-.09-2.34-.3-1.3-1.07-2.33-3.53-2.7-1.19-.22-8.7-.83-10.35-.92-.3,0-.39.28-.42.65l-.31,5.11c-.13,2.18-.53,7.58-.57,9.46-.11,4.37,1.86,5.46,8.62,5.87a17.88,17.88,0,0,0,6.28-.45c1.7-.65,2.53-2,3.14-4.56.19-.67.36-1,.81-.93s.55.86.51,1.54a43.34,43.34,0,0,1-1.33,7c-.55,1.63-1.15,1.59-3.63,1.44-5-.3-8.93-.61-12.16-1s-5.7-.49-7.65-.61c-.75,0-2.18-.06-3.76-.15s-3.24,0-4.59-.12c-.83,0-1.26-.3-1.24-.75s.27-.66,1.09-.61a9.74,9.74,0,0,0,2.34-.08c1.37-.22,1.82-1.4,2.16-3.26.46-2.69.77-7.72,1.12-13.58Z"/><path class="cls-2" d="M349.27,767.56c-.39,8.19-.58,12.25.79,13.53,1.08,1,3.62,1.53,8.73,1.77,3.53.17,6.09.22,7.83-1.43a7.7,7.7,0,0,0,1.84-3.76c.1-.6.27-1,.8-.94s.57.71.53,1.46a48.59,48.59,0,0,1-1.33,7.32c-.52,1.41-.83,1.69-4.29,1.53-4.74-.23-8.57-.48-11.87-.79s-6.08-.44-8.79-.57c-.75,0-2.18,0-3.76-.1s-3.24,0-4.59-.07c-.83,0-1.27-.29-1.25-.74,0-.3.26-.67,1.08-.63a9.76,9.76,0,0,0,2.34-.11c1.37-.24,1.8-1.42,2.12-3.29.43-2.69.67-7.73,1-13.59l.54-11.28c.46-9.7.55-11.5.57-13.54,0-2.19-.62-2.89-2.69-3.59a8.85,8.85,0,0,0-2.17-.33q-1.13-.05-1.09-.73c0-.45.48-.58,1.46-.54,3.08.15,7.29.5,9.09.58,1.58.08,7,.18,9.56.31,1,0,1.42.22,1.4.67s-.41.66-1.24.62a14.69,14.69,0,0,0-2.57.1c-1.82.21-2.39,1.09-2.65,3.34-.25,2-.33,3.83-.8,13.53Z"/><path class="cls-2" d="M386.62,769.12c-.29,8.2-.43,12.26,1,13.51,1.09,1,3.64,1.48,8.75,1.66,3.54.13,6.09.14,7.81-1.53a7.7,7.7,0,0,0,1.79-3.78c.1-.6.26-1,.79-1s.58.7.55,1.45a48.71,48.71,0,0,1-1.24,7.34c-.5,1.41-.81,1.7-4.27,1.58-4.74-.17-8.57-.38-11.88-.64s-6.09-.37-8.79-.46c-.75,0-2.18,0-3.76-.06s-3.24,0-4.59,0c-.83,0-1.27-.27-1.25-.72s.25-.67,1.08-.64a9.74,9.74,0,0,0,2.34-.14c1.36-.25,1.78-1.44,2.07-3.32.4-2.7.58-7.74.78-13.6l.4-11.28c.34-9.7.41-11.51.4-13.54-.07-2.19-.65-2.88-2.74-3.56a8.83,8.83,0,0,0-2.17-.3q-1.13,0-1.1-.72c0-.45.47-.59,1.45-.55,3.08.11,7.29.41,9.1.47,1.58.06,7,.1,9.56.19,1,0,1.42.2,1.41.65s-.4.66-1.23.63a14.71,14.71,0,0,0-2.57.14c-1.82.24-2.37,1.12-2.6,3.37-.22,2-.29,3.83-.63,13.53Z"/><path class="cls-2" d="M415.37,758.73c.22-9.71.26-11.51.23-13.54-.1-2.19-.69-2.88-2.78-3.53a12.25,12.25,0,0,0-2.63-.29c-.68,0-1.12-.25-1.11-.7s.54-.59,1.52-.57c3.46.08,7.67.32,9.55.37,2.11,0,16.78.45,18.06.41s2.26-.25,2.79-.31a7.63,7.63,0,0,1,1.06-.28c.38,0,.45.31.44.61a28.25,28.25,0,0,0-.62,4.13c-.09.68-.3,3.46-.47,4.21-.08.3-.25,1-.78,1s-.52-.31-.51-.84a6,6,0,0,0-.4-2.34c-.5-1.14-1-2.06-4.31-2.43-1.12-.18-9-.5-10.38-.54-.3,0-.46.22-.47.59l-.36,15.8c0,.38.06.68.44.69,1.5,0,10.08.23,11.59.11a5.22,5.22,0,0,0,3.18-.91c.54-.44.77-.81,1.07-.8a.61.61,0,0,1,.51.69c0,.38-.18,1.43-.63,4.65-.18,1.28-.39,3.83-.4,4.28s-.11,1.43-.71,1.41c-.45,0-.6-.24-.59-.54-.06-.68,0-1.51-.17-2.34-.35-1.29-1.15-2.28-3.63-2.57-1.2-.18-8.72-.5-10.38-.54-.3,0-.38.29-.39.67l-.12,5.12c0,2.18-.25,7.6-.21,9.48.05,4.37,2.06,5.39,8.83,5.54a17.86,17.86,0,0,0,6.26-.69c1.67-.71,2.46-2.05,3-4.68.17-.67.32-1,.77-1s.58.84.57,1.52a43.25,43.25,0,0,1-1.06,7.05c-.49,1.65-1.09,1.63-3.57,1.58-5-.11-9-.28-12.18-.5s-5.72-.28-7.67-.32c-.75,0-2.18,0-3.76,0s-3.24.08-4.59,0c-.83,0-1.27-.25-1.26-.71,0-.3.24-.67,1.07-.65a9.74,9.74,0,0,0,2.34-.17c1.36-.27,1.76-1.47,2-3.34.36-2.7.48-7.74.61-13.61Z"/><path class="cls-2" d="M452.85,759.5c.08-9.71.1-11.51,0-13.55-.13-2.18-.73-2.87-2.83-3.49a12.2,12.2,0,0,0-2.63-.25c-.68,0-1.13-.24-1.12-.69s.53-.6,1.51-.59c3.46,0,7.67.22,9,.23,2.26,0,8.28-.08,10.31-.06,4.21,0,9,.46,12.54,2.82a11.17,11.17,0,0,1,4.59,8.84c0,4.74-2.79,8.93-9.3,14.07,5.81,7.28,10.42,13.11,14.38,17.13,3.66,3.72,6,4,7,4.28a6.2,6.2,0,0,0,1.58.16.77.77,0,0,1,.82.68c0,.53-.46.67-1.29.67l-6.32-.05c-3.69,0-5.49-.42-7.21-1.34-2.85-1.46-5.3-4.49-8.95-9.49-2.6-3.49-5.35-7.8-6.17-8.78a1.53,1.53,0,0,0-1.2-.46l-5.94-.2a.48.48,0,0,0-.53.52v.9c-.05,5.95,0,10.91.26,13.62.21,1.88.5,3.09,2.53,3.41a25,25,0,0,0,3.23.25.77.77,0,0,1,.82.68c0,.45-.53.67-1.36.67-3.84,0-9.33-.31-10.31-.32-1.28,0-5.5.18-8.13.16-.83,0-1.28-.24-1.27-.69,0-.3.23-.68,1.06-.67a9.72,9.72,0,0,0,2.33-.21c1.36-.29,1.74-1.49,2-3.37.33-2.71.37-7.75.42-13.62Zm8.38,5c0,.68.14.91.59,1.13a18.14,18.14,0,0,0,5,.65c2.63,0,3.54-.19,4.67-1,2-1.41,4.33-4.18,4.37-9.44.08-9-6.07-11.42-10-11.45a24,24,0,0,0-3.92.19c-.45.15-.61.37-.61.9Z"/><path class="cls-2" d="M521.5,782.39C514,776,512,767.62,511.84,760.32c-.07-5.12,1.38-14,8.5-20.75,5.35-5,12.45-8.16,23.67-8.32a74.32,74.32,0,0,1,10.92.59c2.87.33,5.28,1,7.54,1.17.83.06,1.14.44,1.14.89,0,.6-.2,1.51-.32,4.14-.11,2.49,0,6.62-.11,8.13-.06,1.13-.2,1.73-.88,1.74s-.76-.59-.78-1.64a10.74,10.74,0,0,0-3-6.88c-2.52-2.6-8.42-4.54-15.34-4.44-6.55.09-10.81,1.81-14.08,4.87-5.42,5.12-6.75,12.29-6.64,19.59.26,17.91,14,26.59,24.1,26.45,6.7-.1,10.75-.91,13.71-4.42a12.56,12.56,0,0,0,2.49-5c.21-1.21.35-1.51,1-1.52s.69.52.69,1.12a71.51,71.51,0,0,1-1.51,10,2.66,2.66,0,0,1-1.92,2.21c-3,1.25-8.7,1.86-13.52,1.93C537.12,790.37,528.43,788.23,521.5,782.39Z"/><path class="cls-2" d="M567.12,764.63c-.36-10.91,6.83-25.3,26.92-26,16.7-.56,27.38,8.34,27.88,23s-9.8,26.53-26.88,27.1C575.78,789.41,567.5,776,567.12,764.63Zm45-.3c-.47-14.14-9.26-22.58-19.94-22.22-7.37.25-15.89,4.45-15.36,20.24.44,13.16,8.31,23.29,20.79,22.87C602.29,785.06,612.75,782.53,612.14,764.32Z"/><path class="cls-2" d="M639.11,767.54c.4,8.19.59,12.25,2.08,13.39,1.18.92,3.75,1.17,8.86.93,3.53-.17,6.08-.37,7.65-2.18a7.69,7.69,0,0,0,1.47-3.91c0-.61.18-1,.7-1s.63.65.67,1.4a48.71,48.71,0,0,1-.62,7.41c-.38,1.45-.67,1.76-4.12,1.93-4.74.23-8.57.34-11.89.35s-6.1.15-8.8.28c-.75,0-2.18.18-3.75.26s-3.22.31-4.58.37c-.83,0-1.29-.16-1.31-.61s.19-.69,1-.73a9.75,9.75,0,0,0,2.32-.34c1.34-.37,1.66-1.59,1.79-3.48.17-2.72-.07-7.76-.36-13.62l-.55-11.27c-.47-9.7-.56-11.5-.73-13.53s-.89-2.82-3-3.32a8.82,8.82,0,0,0-2.19-.12q-1.13.05-1.16-.62c0-.45.42-.62,1.4-.67,3.08-.15,7.3-.2,9.1-.29,1.58-.08,7-.49,9.54-.62,1,0,1.44.08,1.46.53s-.34.69-1.17.73a14.79,14.79,0,0,0-2.54.35c-1.79.39-2.27,1.32-2.31,3.58-.05,2,0,3.84.51,13.54Z"/><path class="cls-2" d="M676.46,765.5c.5,8.19.75,12.24,2.25,13.36,1.19.91,3.76,1.13,8.87.81,3.53-.22,6.08-.45,7.63-2.28a7.69,7.69,0,0,0,1.42-3.93c0-.61.17-1,.69-1s.64.64.69,1.39a48.71,48.71,0,0,1-.53,7.42c-.36,1.46-.65,1.77-4.1,2-4.73.29-8.57.45-11.88.5s-6.09.22-8.8.39c-.75,0-2.17.21-3.75.31s-3.22.35-4.57.43c-.83.05-1.29-.15-1.32-.6s.18-.69,1-.74a9.71,9.71,0,0,0,2.31-.37c1.33-.38,1.64-1.61,1.75-3.5.13-2.72-.17-7.75-.53-13.61l-.69-11.27c-.59-9.69-.7-11.49-.9-13.52s-.93-2.81-3.07-3.28a8.86,8.86,0,0,0-2.19-.09q-1.13.07-1.17-.61c0-.45.41-.63,1.39-.69,3.08-.19,7.3-.3,9.1-.41,1.58-.1,7-.58,9.53-.73,1-.06,1.44.06,1.46.51s-.33.7-1.16.75a14.69,14.69,0,0,0-2.54.38c-1.78.41-2.25,1.34-2.27,3.61,0,2,.08,3.84.68,13.53Z"/><path class="cls-2" d="M704,752.4c-.72-9.68-.85-11.48-1.08-13.5s-1-2.8-3.11-3.24a12.25,12.25,0,0,0-2.64,0c-.68.05-1.14-.14-1.18-.59s.48-.64,1.46-.71c3.45-.25,7.67-.42,9.54-.55,2.1-.16,16.74-1.16,18-1.33a28.1,28.1,0,0,0,2.75-.58,7.74,7.74,0,0,1,1-.38c.38,0,.47.27.5.57a28.26,28.26,0,0,0-.22,4.17c0,.68,0,3.47-.06,4.23-.05.31-.15,1.07-.67,1.11s-.55-.26-.59-.79a6,6,0,0,0-.62-2.29c-.61-1.09-1.2-1.95-4.53-2-1.14-.07-9,.37-10.38.47-.3,0-.43.26-.41.63L713,753.32c0,.38.13.67.5.64,1.5-.11,10.06-.74,11.55-1a5.22,5.22,0,0,0,3.08-1.21c.49-.49.69-.88,1-.9s.55.26.58.64,0,1.44-.18,4.69c-.06,1.29,0,3.85,0,4.3s0,1.43-.57,1.48-.62-.18-.64-.48c-.12-.67-.19-1.5-.4-2.31-.47-1.25-1.37-2.16-3.86-2.2-1.21-.06-8.73.34-10.38.47-.3,0-.35.33-.33.7l.38,5.1c.16,2.18.49,7.59.7,9.46.47,4.34,2.57,5.17,9.33,4.67a17.89,17.89,0,0,0,6.17-1.29c1.6-.87,2.25-2.28,2.5-4.94.1-.69.23-1,.68-1s.66.78.71,1.46a43.36,43.36,0,0,1-.38,7.12c-.33,1.68-.93,1.73-3.41,1.91-5,.37-8.94.59-12.18.67s-5.71.27-7.67.42c-.75.05-2.17.24-3.75.35s-3.22.39-4.57.49c-.83.06-1.29-.13-1.33-.58,0-.3.18-.69,1-.75a9.77,9.77,0,0,0,2.31-.4c1.33-.4,1.62-1.63,1.7-3.52.1-2.72-.27-7.75-.71-13.61Z"/><path class="cls-2" d="M785.4,771.33c.15,1.72.16,1.8-.62,2.32-4.23,2.57-10.69,3.83-15.86,4.29-16.19,1.45-31.17-4.61-32.75-22.22a23.68,23.68,0,0,1,9.67-21.87c6-4.24,11.85-5.22,17.39-5.72a75.5,75.5,0,0,1,11.79,0,52.85,52.85,0,0,0,5.31.2c.76,0,.93.22,1,.67a86.77,86.77,0,0,0,.49,10.53c.09,1-.25,1.46-.77,1.5s-.63-.25-.75-.76a8.51,8.51,0,0,0-2.72-5c-2.13-1.85-7.33-4.25-14.75-3.59-3.6.32-8.16.81-12.41,4.89-3.4,3.33-5.38,8.27-4.68,16.06,1.23,13.72,11,22.89,25.06,21.63a10.82,10.82,0,0,0,4.59-1.09,2.11,2.11,0,0,0,1.07-2.36l-.52-5.85c-.28-3.15-.5-5.55-.75-7.49-.27-2.17-1-2.78-3.16-3.19a12,12,0,0,0-2.57,0c-.6.05-1.08-.21-1.11-.58s.47-.65,1.37-.73c3.45-.31,8.18-.58,10.13-.76s5.53-.65,7.71-.84c.9-.08,1.36,0,1.4.48a.77.77,0,0,1-.76.75,9,9,0,0,0-1.78.39c-1.77.46-2.37,1.42-2.24,3.68.1,2,.33,4.5.61,7.65Z"/><path class="cls-2" d="M797.13,744.39c-1-9.66-1.21-11.45-1.5-13.46s-1-2.77-3.21-3.14a12.19,12.19,0,0,0-2.64.05c-.67.07-1.15-.11-1.19-.55s.46-.65,1.43-.76c3.44-.36,7.65-.66,9.52-.85,2.1-.22,16.7-1.69,18-1.9s2.21-.54,2.73-.67a7.85,7.85,0,0,1,1-.41c.37,0,.48.25.51.55a28.25,28.25,0,0,0-.09,4.17c0,.68.14,3.47.07,4.23,0,.31-.11,1.07-.64,1.13s-.55-.24-.61-.77a6,6,0,0,0-.69-2.27c-.64-1.07-1.26-1.91-4.59-1.86-1.14,0-9,.65-10.36.79-.3,0-.42.27-.39.65L806.13,745c0,.38.15.67.52.63,1.5-.16,10-1.06,11.51-1.37a5.22,5.22,0,0,0,3-1.3c.48-.5.66-.9,1-.93s.56.24.59.62,0,1.44,0,4.7c0,1.29.1,3.85.15,4.3s.08,1.43-.52,1.49-.62-.16-.65-.46c-.15-.67-.23-1.49-.47-2.3-.51-1.23-1.44-2.12-3.93-2.08-1.21,0-8.71.62-10.36.79-.3,0-.34.34-.3.71l.54,5.09c.23,2.17.72,7.57,1,9.43.61,4.33,2.73,5.08,9.47,4.37a17.86,17.86,0,0,0,6.13-1.48c1.57-.92,2.17-2.35,2.35-5,.08-.69.2-1,.65-1.05s.69.76.76,1.43a43.32,43.32,0,0,1-.16,7.13c-.28,1.69-.87,1.76-3.34,2-4.94.52-8.92.87-12.15,1.06s-5.7.45-7.65.66c-.75.08-2.16.3-3.73.47s-3.2.49-4.55.63c-.82.09-1.3-.09-1.34-.54s.15-.7,1-.78a9.79,9.79,0,0,0,2.3-.47c1.32-.44,1.56-1.68,1.59-3.57,0-2.73-.51-7.74-1.13-13.58Z"/></svg>